<svg xmlns="http://www.w3.org/2000/svg" xmlns:xlink="http://www.w3.org/1999/xlink" width="2382.662" height="687.852" viewBox="0 0 2382.662 687.852">
  <defs>
    <style>
      .cls-1 {
        fill: none;
      }

      .cls-2 {
        opacity: 0.16;
      }

      .cls-3 {
        clip-path: url(#clip-path);
      }

      .cls-4 {
        fill: #fafbea;
      }

      .cls-5 {
        clip-path: url(#clip-path-2);
      }

      .cls-6 {
        opacity: 0.089;
      }

      .cls-7 {
        clip-path: url(#clip-path-3);
      }

      .cls-8 {
        clip-path: url(#clip-path-4);
      }
    </style>
    <clipPath id="clip-path">
      <rect id="사각형_53" data-name="사각형 53" class="cls-1" width="600.404" height="117.674"/>
    </clipPath>
    <clipPath id="clip-path-2">
      <rect id="사각형_53-2" data-name="사각형 53" class="cls-1" width="533.836" height="104.627"/>
    </clipPath>
    <clipPath id="clip-path-3">
      <rect id="사각형_51" data-name="사각형 51" class="cls-1" width="653.64" height="139.021"/>
    </clipPath>
    <clipPath id="clip-path-4">
      <rect id="사각형_51-2" data-name="사각형 51" class="cls-1" width="279.566" height="59.46"/>
    </clipPath>
  </defs>
  <g id="그룹_899" data-name="그룹 899" transform="translate(20234.793 18167.967)">
    <g id="그룹_403" data-name="그룹 403" class="cls-2" transform="translate(-18452.535 -17732.025)">
      <g id="그룹_402" data-name="그룹 402">
        <g id="그룹_401" data-name="그룹 401" class="cls-3">
          <path id="패스_3726" data-name="패스 3726" class="cls-4" d="M708.283,185.852c-19.246-11.749-55.605-26.667-116.325-26.667q-8.255,0-16.192.32c-1.953-14.736-8.521-27.132-18.819-32.916-10.865-6.107-23.435-3.408-33.915,5.646-10.546-18.783-28.193-31.07-48.185-31.07a49.983,49.983,0,0,0-27.554,8.451C435.786,84.689,415.9,68.178,393.251,68.178c-17.079,0-32.631,9.409-44.136,24.71a26.426,26.426,0,0,0-8.806-1.563c-13.955,0-26.17,11.291-32.987,28.158a78.772,78.772,0,0,0-31.353-6.427c-29.827,0-55.25,16.086-64.944,38.632-59.653,5.539-93,26.667-103.151,34.158Z" transform="translate(-107.879 -68.189)"/>
        </g>
      </g>
    </g>
    <g id="그룹_403-2" data-name="그룹 403" class="cls-2" transform="translate(-19986.535 -17584.742)">
      <g id="그룹_402-2" data-name="그룹 402">
        <g id="그룹_401-2" data-name="그룹 401" class="cls-5">
          <path id="패스_3726-2" data-name="패스 3726" class="cls-4" d="M641.714,172.8c-17.112-10.447-49.44-23.71-103.427-23.71q-7.339,0-14.4.284c-1.736-13.1-7.576-24.124-16.733-29.266-9.66-5.43-20.837-3.031-30.155,5.02-9.377-16.7-25.067-27.625-42.843-27.625a44.441,44.441,0,0,0-24.5,7.514C399.43,82.858,381.752,68.178,361.61,68.178c-15.185,0-29.013,8.366-39.242,21.97a23.5,23.5,0,0,0-7.829-1.389c-12.408,0-23.269,10.039-29.33,25.036a70.038,70.038,0,0,0-27.877-5.714c-26.52,0-49.125,14.3-57.744,34.349-53.039,4.925-82.685,23.71-91.714,30.37Z" transform="translate(-107.878 -68.188)"/>
        </g>
      </g>
    </g>
    <g id="그룹_397" data-name="그룹 397" class="cls-6" transform="translate(-20234.793 -18115.221)">
      <g id="그룹_396" data-name="그룹 396">
        <g id="그룹_395" data-name="그룹 395" class="cls-7">
          <path id="패스_3724" data-name="패스 3724" class="cls-4" d="M686.547,201.606C677.21,191.8,546.671,172.841,503.9,164.178c-8.531-27.985-28.688-47.656-52.175-47.656a41.9,41.9,0,0,0-9.024.988c-16.28-32.772-47.233-54.933-82.788-54.933-32.824,0-61.72,18.8-78.754,47.421a24.058,24.058,0,0,0-13.524-4.446c-10.534,0-20.027,32.666-26.685,44.839-9.6-9.442-21.926-40.158-35.4-40.158-25.88,0-47.571,21.041-53.656,49.468-1.455-.026-2.939-.052-4.42-.052C79.8,159.65,43.011,191.38,32.916,201.6Z" transform="translate(-32.921 -62.592)"/>
        </g>
      </g>
    </g>
    <g id="그룹_397-2" data-name="그룹 397" class="cls-6" transform="translate(-18972.793 -18167.967)">
      <g id="그룹_396-2" data-name="그룹 396">
        <g id="그룹_395-2" data-name="그룹 395" class="cls-8">
          <path id="패스_3724-2" data-name="패스 3724" class="cls-4" d="M32.916,122.041c3.993-4.194,59.826-12.3,78.117-16.008,3.649-11.97,12.27-20.383,22.316-20.383a17.921,17.921,0,0,1,3.86.423c6.963-14.017,20.2-23.5,35.409-23.5,14.039,0,26.4,8.043,33.684,20.282a10.29,10.29,0,0,1,5.784-1.9c4.505,0,8.566,13.972,11.413,19.178,4.1-4.038,9.378-17.176,15.14-17.176,11.069,0,20.347,9,22.949,21.158.622-.011,1.257-.022,1.891-.022,28.946,0,44.681,13.571,49,17.943Z" transform="translate(-32.91 -62.584)"/>
        </g>
      </g>
    </g>
  </g>
</svg>
