<svg xmlns="http://www.w3.org/2000/svg" xmlns:xlink="http://www.w3.org/1999/xlink" width="2012.041" height="618.4" viewBox="0 0 2012.041 618.4">
  <defs>
    <style>
      .cls-1 {
        fill: none;
      }

      .cls-2 {
        opacity: 0.61;
      }

      .cls-3 {
        clip-path: url(#clip-path);
      }

      .cls-4 {
        fill: #fafbea;
      }

      .cls-5 {
        clip-path: url(#clip-path-2);
      }

      .cls-6 {
        clip-path: url(#clip-path-3);
      }

      .cls-7 {
        clip-path: url(#clip-path-4);
      }

      .cls-8 {
        opacity: 0.531;
      }

      .cls-9 {
        clip-path: url(#clip-path-5);
      }

      .cls-10 {
        opacity: 0.794;
      }

      .cls-11 {
        clip-path: url(#clip-path-6);
      }
    </style>
    <clipPath id="clip-path">
      <rect id="사각형_51" data-name="사각형 51" class="cls-1" width="278.431" height="59.219"/>
    </clipPath>
    <clipPath id="clip-path-2">
      <rect id="사각형_52" data-name="사각형 52" class="cls-1" width="468.521" height="86.117"/>
    </clipPath>
    <clipPath id="clip-path-3">
      <rect id="사각형_52-2" data-name="사각형 52" class="cls-1" width="415.352" height="76.345"/>
    </clipPath>
    <clipPath id="clip-path-4">
      <rect id="사각형_53" data-name="사각형 53" class="cls-1" width="291.814" height="57.193"/>
    </clipPath>
    <clipPath id="clip-path-5">
      <rect id="사각형_51-2" data-name="사각형 51" class="cls-1" width="358.385" height="76.224"/>
    </clipPath>
    <clipPath id="clip-path-6">
      <rect id="사각형_52-3" data-name="사각형 52" class="cls-1" width="234.26" height="43.059"/>
    </clipPath>
  </defs>
  <g id="그룹_900" data-name="그룹 900" transform="translate(20053.881 18178.016)">
    <g id="그룹_397" data-name="그룹 397" class="cls-2" transform="translate(-19638.328 -17643.961)">
      <g id="그룹_396" data-name="그룹 396">
        <g id="그룹_395" data-name="그룹 395" class="cls-3">
          <path id="패스_3724" data-name="패스 3724" class="cls-4" d="M32.916,121.8c3.977-4.177,59.583-12.253,77.8-15.943,3.634-11.921,12.22-20.3,22.225-20.3a17.848,17.848,0,0,1,3.844.421c6.935-13.96,20.12-23.4,35.265-23.4,13.982,0,26.291,8.01,33.547,20.2a10.248,10.248,0,0,1,5.761-1.894c4.487,0,8.531,13.915,11.367,19.1,4.088-4.022,9.34-17.106,15.079-17.106,11.024,0,20.264,8.963,22.856,21.072.62-.011,1.252-.022,1.883-.022,28.828,0,44.5,13.516,48.8,17.87Z" transform="translate(-32.91 -62.584)"/>
        </g>
      </g>
    </g>
    <g id="그룹_400" data-name="그룹 400" transform="translate(-19171.135 -17872.977)">
      <g id="그룹_399" data-name="그룹 399">
        <g id="그룹_398" data-name="그룹 398" class="cls-5">
          <path id="패스_3725" data-name="패스 3725" class="cls-4" d="M580.129,128.6c-15.029-8.612-43.393-19.513-90.781-19.513q-6.429,0-12.634.225c-1.508-10.769-6.641-19.844-14.685-24.078-8.48-4.472-18.27-2.487-26.446,4.141-8.255-13.745-22.014-22.768-37.611-22.768a40.8,40.8,0,0,0-21.5,6.191C367.5,54.555,351.96,42.477,334.3,42.477c-13.335,0-25.453,6.893-34.463,18.1A21.7,21.7,0,0,0,293,59.424c-10.9,0-20.426,8.255-25.758,20.612a64.733,64.733,0,0,0-24.474-4.7c-23.271,0-43.088,11.774-50.669,28.271-46.568,4.048-72.577,19.514-80.5,24.99Z" transform="translate(-111.607 -42.481)"/>
        </g>
      </g>
    </g>
    <g id="그룹_399-2" data-name="그룹 399" transform="translate(-18693.227 -17635.961)">
      <g id="그룹_398-2" data-name="그룹 398" class="cls-6">
        <path id="패스_3725-2" data-name="패스 3725" class="cls-4" d="M111.594,118.825c13.323-7.635,38.475-17.3,80.478-17.3q5.7,0,11.2.2c1.337-9.546,5.887-17.592,13.018-21.346,7.518-3.965,16.2-2.206,23.445,3.67,7.319-12.186,19.516-20.184,33.344-20.184a36.17,36.17,0,0,1,19.058,5.5c7.952-16.174,21.732-26.881,37.39-26.881,11.823,0,22.565,6.11,30.551,16.044a19.234,19.234,0,0,1,6.064-1.021c9.665,0,18.108,7.319,22.835,18.273a57.386,57.386,0,0,1,21.7-4.163c20.629,0,38.2,10.438,44.918,25.064,41.283,3.589,64.34,17.3,71.365,22.163Z" transform="translate(-111.594 -42.478)"/>
      </g>
    </g>
    <g id="그룹_403" data-name="그룹 403" transform="translate(-20053.881 -17776.592)">
      <g id="그룹_402" data-name="그룹 402">
        <g id="그룹_401" data-name="그룹 401" class="cls-7">
          <path id="패스_3726" data-name="패스 3726" class="cls-4" d="M107.873,125.371c9.354-5.711,27.026-12.961,56.537-12.961q4.012,0,7.87.155c.949-7.162,4.142-13.187,9.147-16,5.281-2.968,11.39-1.657,16.484,2.744,5.126-9.129,13.7-15.1,23.419-15.1a24.293,24.293,0,0,1,13.392,4.107c5.593-12.115,15.256-20.14,26.266-20.14,8.3,0,15.86,4.573,21.451,12.01a12.844,12.844,0,0,1,4.28-.759c6.783,0,12.72,5.488,16.033,13.686a38.285,38.285,0,0,1,15.239-3.124c14.5,0,26.853,7.818,31.565,18.776,28.993,2.692,45.2,12.961,50.134,16.6Z" transform="translate(-107.873 -68.183)"/>
        </g>
      </g>
    </g>
    <g id="그룹_397-2" data-name="그룹 397" class="cls-8" transform="translate(-18400.225 -18178.016)">
      <g id="그룹_396-2" data-name="그룹 396">
        <g id="그룹_395-2" data-name="그룹 395" class="cls-9">
          <path id="패스_3724-2" data-name="패스 3724" class="cls-4" d="M391.3,138.806c-5.119-5.376-76.693-15.771-100.141-20.521-4.678-15.344-15.729-26.129-28.607-26.129a22.974,22.974,0,0,0-4.948.542c-8.926-17.969-25.9-30.119-45.392-30.119-18,0-33.841,10.31-43.18,26a13.191,13.191,0,0,0-7.415-2.438c-5.775,0-10.981,17.911-14.631,24.585-5.262-5.177-12.022-22.018-19.409-22.018-14.19,0-26.083,11.537-29.419,27.123-.8-.014-1.612-.028-2.424-.028-37.106,0-57.279,17.4-62.813,23Z" transform="translate(-32.919 -62.586)"/>
        </g>
      </g>
    </g>
    <g id="그룹_399-3" data-name="그룹 399" class="cls-10" transform="translate(-19719.135 -18136.75)">
      <g id="그룹_398-3" data-name="그룹 398" class="cls-11">
        <path id="패스_3725-3" data-name="패스 3725" class="cls-4" d="M111.594,85.539c7.514-4.306,21.7-9.757,45.39-9.757q3.215,0,6.317.112c.754-5.384,3.32-9.922,7.342-12.039,4.24-2.236,9.135-1.244,13.223,2.07,4.128-6.873,11.007-11.384,18.806-11.384a20.4,20.4,0,0,1,10.749,3.1c4.485-9.122,12.257-15.161,21.088-15.161,6.668,0,12.727,3.446,17.231,9.049a10.848,10.848,0,0,1,3.42-.576c5.451,0,10.213,4.128,12.879,10.306a32.366,32.366,0,0,1,12.237-2.348c11.635,0,21.544,5.887,25.334,14.136,23.284,2.024,36.288,9.757,40.25,12.5Z" transform="translate(-111.594 -42.479)"/>
      </g>
    </g>
  </g>
</svg>
