<?xml version="1.0" encoding="utf-8"?>
<!-- Generator: Adobe Illustrator 26.1.0, SVG Export Plug-In . SVG Version: 6.00 Build 0)  -->
<svg version="1.1" id="Layer_1" xmlns="http://www.w3.org/2000/svg" xmlns:xlink="http://www.w3.org/1999/xlink" x="0px" y="0px"
	 viewBox="0 0 2382.7 687.9" style="enable-background:new 0 0 2382.7 687.9;" xml:space="preserve">
<style type="text/css">
	.st0{opacity:0.16;}
	.st1{clip-path:url(#SVGID_00000106131289586504545250000003075676534815066500_);}
	.st2{fill:#FAFBEA;}
	.st3{clip-path:url(#SVGID_00000114787887632826559440000011789118001758036627_);}
	.st4{opacity:8.900000e-02;}
	.st5{clip-path:url(#SVGID_00000156569234861322632880000016936326432888107398_);}
	.st6{clip-path:url(#SVGID_00000029017758250604747570000002158904600707942815_);}
</style>
<g id="그룹_899" transform="translate(20234.793 18167.967)">
	<g id="그룹_403" transform="translate(-18452.535 -17732.025)" class="st0">
		<g id="그룹_402">
			<g>
				<defs>
					<rect id="SVGID_1_" x="-125.8" y="-19.6" width="472.5" height="92.6"/>
				</defs>
				<clipPath id="SVGID_00000147183087111125689670000016671067563887844257_">
					<use xlink:href="#SVGID_1_"  style="overflow:visible;"/>
				</clipPath>
				<g id="그룹_401" style="clip-path:url(#SVGID_00000147183087111125689670000016671067563887844257_);">
					<path id="패스_3726" class="st2" d="M346.7,73c-15.1-9.2-43.8-21-91.6-21c-4.3,0-8.6,0.1-12.7,0.3
						c-1.5-11.6-6.7-21.4-14.8-25.9c-8.6-4.8-18.4-2.7-26.7,4.4C192.6,16,178.7,6.4,163,6.4c-7.7,0-15.3,2.4-21.7,6.7
						c-9.1-19.6-24.7-32.6-42.5-32.6c-13.4,0-25.7,7.4-34.7,19.4c-2.2-0.8-4.6-1.2-6.9-1.2c-11,0-20.6,8.9-26,22.2
						c-7.8-3.4-16.2-5.1-24.7-5.1C-17,15.7-37,28.4-44.7,46.1c-46.9,4.4-73.2,21-81.2,26.9L346.7,73z"/>
				</g>
			</g>
		</g>
	</g>
	<g id="그룹_403-2" transform="translate(-19986.535 -17584.742)" class="st0">
		<g id="그룹_402-2">
			<g>
				<defs>
					<rect id="SVGID_00000153679959897892927720000001412301771699669899_" x="200.8" y="-51" width="420.2" height="82.3"/>
				</defs>
				<clipPath id="SVGID_00000067210101890799205640000001699480800278551197_">
					<use xlink:href="#SVGID_00000153679959897892927720000001412301771699669899_"  style="overflow:visible;"/>
				</clipPath>
				<g id="그룹_401-2" style="clip-path:url(#SVGID_00000067210101890799205640000001699480800278551197_);">
					<path id="패스_3726-2" class="st2" d="M621,31.4c-13.5-8.2-38.9-18.7-81.4-18.7c-3.9,0-7.6,0.1-11.3,0.2
						c-1.4-10.3-6-19-13.2-23c-7.6-4.3-16.4-2.4-23.7,4c-7.4-13.1-19.7-21.7-33.7-21.7c-6.9,0-13.6,2.1-19.3,5.9
						c-8-17.4-22-29-37.8-29c-12,0-22.8,6.6-30.9,17.3c-2-0.7-4.1-1.1-6.2-1.1c-9.8,0-18.3,7.9-23.1,19.7c-6.9-3-14.4-4.5-21.9-4.5
						c-20.9,0-38.7,11.3-45.4,27c-41.7,3.9-65.1,18.7-72.2,23.9L621,31.4z"/>
				</g>
			</g>
		</g>
	</g>
	<g id="그룹_397" transform="translate(-20234.793 -18115.221)" class="st4">
		<g id="그룹_396">
			<g>
				<defs>
					<rect id="SVGID_00000116204797411430492800000003284767374582131861_" x="253.7" y="62" width="514.4" height="109.4"/>
				</defs>
				<clipPath id="SVGID_00000068659097782655664050000002127892993278649506_">
					<use xlink:href="#SVGID_00000116204797411430492800000003284767374582131861_"  style="overflow:visible;"/>
				</clipPath>
				<g id="그룹_395" style="clip-path:url(#SVGID_00000068659097782655664050000002127892993278649506_);">
					<path id="패스_3724" class="st2" d="M768.1,171.4c-7.3-7.7-110.1-22.6-143.8-29.5c-6.7-22-22.6-37.5-41.1-37.5
						c-2.4,0-4.8,0.3-7.1,0.8C563.4,79.4,539,62,511.1,62c-25.8,0-48.6,14.8-62,37.3c-3.1-2.2-6.8-3.4-10.6-3.5
						c-8.3,0-15.8,25.7-21,35.3c-7.6-7.4-17.3-31.6-27.9-31.6c-20.4,0-37.4,16.6-42.2,38.9c-1.1,0-2.3,0-3.5,0
						c-53.3,0-82.2,25-90.2,33L768.1,171.4z"/>
				</g>
			</g>
		</g>
	</g>
	<g id="그룹_397-2" transform="translate(-18972.793 -18167.967)" class="st4">
		<g id="그룹_396-2">
			<g>
				<defs>
					<rect id="SVGID_00000165199339994188750190000010732313594904582832_" x="-15" y="73.2" width="220" height="46.8"/>
				</defs>
				<clipPath id="SVGID_00000023277336786570125310000004153324496483909527_">
					<use xlink:href="#SVGID_00000165199339994188750190000010732313594904582832_"  style="overflow:visible;"/>
				</clipPath>
				<g id="그룹_395-2" style="clip-path:url(#SVGID_00000023277336786570125310000004153324496483909527_);">
					<path id="패스_3724-2" class="st2" d="M-15,120c3.1-3.3,47.1-9.7,61.5-12.6c2.9-9.4,9.7-16,17.6-16c1,0,2,0.1,3,0.3
						c5.5-11,15.9-18.5,27.9-18.5c11,0,20.8,6.3,26.5,16c1.3-0.9,2.9-1.5,4.6-1.5c3.5,0,6.7,11,9,15.1c3.2-3.2,7.4-13.5,11.9-13.5
						c8.7,0,16,7.1,18.1,16.7c0.5,0,1,0,1.5,0c22.8,0,35.2,10.7,38.6,14.1L-15,120z"/>
				</g>
			</g>
		</g>
	</g>
</g>
</svg>
