<svg xmlns="http://www.w3.org/2000/svg" xmlns:xlink="http://www.w3.org/1999/xlink" width="1920.005" height="540" viewBox="0 0 1920.005 540">
  <defs>
    <style>
      .cls-1 {
        fill: none;
      }

      .cls-2 {
        clip-path: url(#clip-path);
      }

      .cls-3 {
        fill: #3fc8e0;
      }

      .cls-4 {
        fill: rgba(0,0,0,0.06);
      }

      .cls-5 {
        fill: #ddccab;
      }

      .cls-6 {
        fill: #fff;
      }

      .cls-7 {
        fill: #c9b38e;
      }

      .cls-8 {
        opacity: 0.084;
      }

      .cls-9 {
        fill: #192222;
      }

      .cls-10 {
        fill: #2c3331;
      }
    </style>
    <clipPath id="clip-path">
      <rect id="사각형_35" data-name="사각형 35" class="cls-1" width="1920.005" height="289.835"/>
    </clipPath>
  </defs>
  <g id="bg_bottom" transform="translate(15507 15695)">
    <g id="바다" transform="translate(-15507 -15444.835)">
      <g id="그룹_322" data-name="그룹 322" class="cls-2">
        <path id="패스_3695" data-name="패스 3695" class="cls-3" d="M1477.251,32.217c-122.893,4.514-292.046,12.235-415.01,10.735-212.574-2.6-449.514,23.616-661.533,39.127C378.4,83.711,348.2,95.59,354.217,117.137c3.107,11.128,15.109,16.843,25.82,21.174q52.489,21.232,104.98,42.461c112.926,45.674,256.227,67.086,376.694,85.148,56.952,8.54,114.672,10.714,171.836,17.7,14.46,1.767,28.865,3.863,43.232,6.189h843.2V12.3c-87.026,10.282-373.306,17.373-442.725,19.922"/>
        <path id="패스_3696" data-name="패스 3696" class="cls-4" d="M1087.226,289.809c-2.107-4.273-17.723-6.734-22.649-8.648-37.193-14.45-227.833-35.421-267.92-42.063-55.862-9.255-108.5-29.186-159.67-50.52-51.97-21.667-65.685-27.95-116.708-51.214-3.8-1.735-41.244-16.844-36.966-16.412-13.832-.453-30.1-9.03-43.934-9.483-4.3-16.09,18.419-28.621,37.649-28.107s37.6,8.284,56.838,7.855c14.078-.314,27.448-4.993,41.126-7.872,52.69-11.09,109.844,4.571,161.721-9.056,10.444-2.743,20.525-6.65,31.285-8.26,17.559-2.627,35.537,1.047,52.542,5.628,96.832,26.087,188.526,83.005,289.147,71.609q-81.759-12.489-161.83-31.808a214.611,214.611,0,0,1,87.3-11.378L962.369,85.54c34.7-15.386,75.295-20.761,113.782-15.06l-30.225-15.844a931.773,931.773,0,0,1,261.74,26.711c-7.6-9.2-20.063-15.32-33.16-16.29,24.79-6.1,51.092-5.13,76.853-4.11l378.669,15L1607.363,55.315c64.452-23.882,147.747-3.556,210.2-27.684-7.453.024-14.907.027-22.36.054-349.666,1.239-693.828-8.884-1043.38-1.155-114.2,2.526-230.854-.36-346.652-.927-6.837,2.284-13.671,4.573-20.458,6.985-20,7.108-41.8,16.654-48.441,34.339-3.652,9.73-1.927,20.33.9,30.26,15.45,54.266,62.407,99.041,117.947,128.188s119.373,44.386,183.011,56.18c16.193,3,32.516,5.8,48.918,8.258l372.856-.2c11.192-3.616,13.882.59,27.32.2"/>
        <path id="패스_3697" data-name="패스 3697" class="cls-5" d="M861.713,265.924c-120.467-18.062-263.769-39.474-376.7-85.149l-104.98-42.462c-10.711-4.333-22.711-10.046-25.82-21.174C348.2,95.592,378.393,83.712,400.7,82.08,612.731,66.569,849.673,40.35,1062.25,42.951c122.968,1.5,292.122-6.22,415.017-10.734,69.42-2.549,355.7-9.64,442.732-19.924V0C1613.314.422,1022.276,1.723,715.333,9.633,574.765,13.255,178.526,6.424,0,9.291V289.809H1076.786c-14.367-2.326-28.773-4.424-43.232-6.189-57.167-6.981-114.886-9.156-171.841-17.7"/>
        <path id="패스_3698" data-name="패스 3698" class="cls-6" d="M1179.085,157.995c-12.385-1.156-24.182-5.9-36.51-7.554-22.286-2.993-46.332,4-66.694-5.537"/>
        <path id="패스_3699" data-name="패스 3699" class="cls-6" d="M1920,208.229c-8.88,1.946-17.711,4.168-26.633,5.916-26.194,5.134-53,6.115-79.666,7.081l-252.059,9.135c-10.935.4-22.342.7-32.27-3.914-5.327-2.477-10.073-6.314-15.755-7.8-8.635-2.256-17.561,1.294-26.28,3.2-33.065,7.213-66.064-9.377-99.278-15.861-32.449-6.335-65.871-2.954-98.887-1.3a861.3,861.3,0,0,1-107.7-1.209c20.076,3.3,40.177,6.421,60.364,8.945,16.6,2.075,33.252,3.749,49.9,5.423L1391.9,227.914c33.483,3.367,67.6,6.7,100.53-.241,7.638-1.611,15.318-3.782,23.105-3.25,7.634.522,14.825,3.607,22.206,5.631,29.028,7.961,59.767-.624,89.856-.173,38.132.571,75.069,15.714,113.2,15.152,39.232-.577,80.563-17.41,116.185-.907,3.679,1.7,7.345,3.781,11.39,4.027,5.553.337,10.626-2.8,15.745-4.986,11.155-4.76,24.474-4.035,35.886,0V208.229Z"/>
        <path id="패스_3700" data-name="패스 3700" class="cls-6" d="M358.152,118.077c5.537,8.983,12.91,13.851,22.063,17.414l89.71,34.922c96.5,37.563,198.376,71.661,301.319,86.516,48.669,7.024,93.608,6.074,142.457,11.815,12.356,1.453,34.32,2.942,47.426,2.909-2.734-1.588-10.436-9.259-13.935-9.239-5.646.033-11.647,1.24-16.662-2.239-1.89-1.312-3.565-3.256-5.615-4.022-1.816-.677-3.745-.36-5.623-.569-4.989-.552-9.114,5.26-13.894,3.27-3.568-1.485-7.348-1.736-11.081-1.974L858.728,254.6c-4.158-.267-8.315-.532-12.472-.834a743.625,743.625,0,0,1-148.991-26.36c-7.769-2.2-15.588-4.542-23.529-4.6-9.331-.068-18.668,3.021-27.924,1.439-8.927-1.525-17-7.151-25.524-10.628a39.727,39.727,0,0,0-12.757-2.942c-1.6-.1-3.535,1.071-4.895-.171-1.252-1.144-.208-4.636-1.931-5.778-1.988-1.317-3.367,2.748-5,4.758-2.469,3.038-6.613,1.107-8.9-2.174s-3.631-7.639-6.1-10.679c-4.991-6.151-12.762-5.1-19.16-8.112-7.21-3.391-13.08-12.173-20.719-12.433-3.308-.112-6.5,1.442-9.749,2.308-6.911,1.844-14.07.559-20.964-1.4a119.31,119.31,0,0,1-18.733-7.083c-4.118-1.96-8.315-4.2-12.682-3.973-1.788.095-3.718.565-5.264-.642-1.878-1.466-2.374-4.728-3.508-7.214-2.178-4.779-6.842-6.787-8.9-11.661-.91-2.154-1.217-4.673-2-6.912-2.568-7.321-9.357-9.83-15.368-10.568s-12.56-.765-17.3-5.773c-1.3-1.377-2.481-3.14-4.084-3.72-1.772-.642-3.614.313-5.4.864-4.989,1.536-10.487-.271-14.38-4.728-1.531-1.753-3.121-4.039-5.127-3.8-1.211.141-2.263,1.218-3.463,1.468-1.4.292-2.772-.563-4.068-1.33-.431-.255-.862-.494-1.293-.721-5.945-3.111-11.95-3.591-18.067-5.822-3.843-1.4-8.433-5.782-12.611-3.583a6.456,6.456,0,0,0-1.742,1.338c-.639,4.217-1.067,8.775,0,12.454" transform="translate(-2.526 4.547)"/>
        <path id="패스_3701" data-name="패스 3701" class="cls-7" d="M356.144,103.23a5.9,5.9,0,0,1,.789-2.232c-4.584,3.7-4.315,13.832-3.291,18.992a14.911,14.911,0,0,0,3.612,6.693c-.132-.343-.269-.684-.4-1.027-2.38-6.223-5.938-17.5-.71-22.426"/>
        <path id="패스_3702" data-name="패스 3702" class="cls-7" d="M1076.791,289.813l-319.455-3.8c5.227,1.3,10.4,2.575,15.469,3.8Z"/>
        <path id="패스_3703" data-name="패스 3703" class="cls-8" d="M1025.477,280.469c-58.593-6.008-113.03-8.976-171.406-16.324C730.6,248.6,608.4,212.923,492.654,173.619c-35.868-12.18-66.895-26.47-102.763-38.65-10.978-3.728-22.009-8.287-28.035-15.614-2.577-3.133-6.48-11.713-5.712-16.126-5.228,4.923-1.67,16.2.709,22.426.132.343.269.684.4,1.027a46.075,46.075,0,0,0,4.3,4.243c30.094,26.731,70.662,43.069,110.252,58.822,62.879,25.02,125.859,50.077,191.14,70.3,29.595,9.169,63.137,18.171,94.39,25.958l319.456,3.805c-14.726-2-36.494-7.823-51.314-9.343"/>
      </g>
    </g>
    <g id="산" transform="translate(-15507 -15695)">
      <g id="그룹_331" data-name="그룹 331">
        <path id="패스_3704" data-name="패스 3704" class="cls-9" d="M1153.911,250.165q-1.6-1.041-3.255-2.056c-.079-.048-.162-.1-.244-.149-15.4-9.382-33.819-16.929-45.547-23.529q-41.682-23.454-84.424-44.953c-19.842-9.979-41.138-19.89-63.253-17.836a79.342,79.342,0,0,0-9.82,1.621c-3.88.862-7.727,1.92-11.574,2.991-4.625,1.29-9.254,2.58-13.95,3.514-17.76,3.535-35.982,1.9-54-.746-4.365-.639-8.717-1.338-13.048-2.036q-21.756-3.517-43.505-7.033-12.417-2.012-24.834-4.016l-20.924-3.383L728.689,146.6c-15.517-2.509-31.273-5.122-46.507-9.117v-.009l-.007,0c.006-.029.016-.059.022-.091-.211-.055-.42-.118-.629-.173l-.045-.012c-16.353-4.331-32.092-10.265-46.252-19.468-16.076-10.449-29.331-24.6-43.713-37.277-36.881-32.518-82.183-54.4-130.089-65.081v.107C407.521,3.455,350.279,5.7,297.97,23.022h-.007q-6,1.984-11.908,4.245l-1.074.41c-3.5,1.347-6.97,2.779-10.416,4.266-.681.294-1.363.58-2.042.88-3.148,1.388-6.259,2.857-9.355,4.364-.815.4-1.644.773-2.455,1.18-.448.223-.9.434-1.35.663-2.274,1.153-4.513,2.384-6.754,3.6-1.023.559-2.063,1.073-3.08,1.644-3.2,1.8-6.388,3.653-9.59,5.479-1.908,1.088-3.826,2.164-5.757,3.2a98.031,98.031,0,0,1-18.018,7.833c-9.128,2.762-18.65,3.517-28.226,3.722q-2.051.045-4.105.056c-3.652.03-7.3.009-10.936.021-4.069.012-8.135.08-12.2.175q-1.69.041-3.38.1-4.743.138-9.483.354c-1,.045-2.006.086-3.011.137h-.012q-6.264.316-12.524.764t-12.521,1.029c-.657.059-1.311.125-1.968.187q-5.742.553-11.478,1.213c-.4.048-.791.089-1.182.137h-.016c-3.335.392-6.662.838-9.991,1.287-5.368.725-10.734,1.5-16.082,2.366l-.606.1-.039.009q-6.442,1.051-12.868,2.247L65.5,74.7c-.651.122-1.3.262-1.953.386-1.6.3-3.187.63-4.782.945q-5.083,1-10.153,2.093-2.733.592-5.458,1.207Q38.105,80.464,33.082,81.7c-1.6.392-3.21.773-4.81,1.177Q21,84.708,13.758,86.722c-.042.012-.083.021-.121.033-3.342.936-6.716,2.021-10.049,3.208-1.2.428-2.41.82-3.588,1.29V259.229c185.275-2.249,562.658,4.085,699.114.569,120.678-3.11,285.272-5.2,459.232-6.613-1.431-1.028-2.916-2.033-4.435-3.02"/>
        <path id="패스_3705" data-name="패스 3705" class="cls-10" d="M774.487,9.909c-1.07,2.848-2.212,5.663-3.4,8.454-.092.22-.181.446-.273.666-1.136,2.649-2.334,5.271-3.567,7.875-.167.354-.327.71-.5,1.064q-1.8,3.745-3.737,7.426c-.235.449-.461.9-.7,1.344-1.257,2.372-2.562,4.721-3.894,7.051-.3.517-.589,1.037-.889,1.552q-1.971,3.393-4.043,6.73c-.354.571-.7,1.142-1.064,1.712q-2.041,3.241-4.171,6.433c-.413.621-.826,1.243-1.246,1.861q-2.1,3.1-4.275,6.159c-.473.666-.948,1.326-1.427,1.986q-2.145,2.965-4.349,5.892-.807,1.07-1.626,2.128c-1.448,1.888-2.9,3.763-4.391,5.627-.606.758-1.222,1.513-1.834,2.268q-2.172,2.689-4.385,5.342c-.693.829-1.4,1.647-2.1,2.47-1.433,1.683-2.869,3.365-4.325,5.03-.788.9-1.587,1.79-2.381,2.684-1.4,1.57-2.791,3.139-4.206,4.694-.913,1-1.84,1.995-2.762,2.991-1.323,1.43-2.64,2.863-3.977,4.278-1.076,1.144-2.17,2.271-3.255,3.407-1.207,1.257-2.4,2.521-3.621,3.769-1.35,1.385-2.711,2.753-4.07,4.126-.972.981-1.938,1.974-2.913,2.949q-3.527,3.523-7.084,6.995c-.806.785-1.638,1.549-2.458,2.322.211.056.422.119.636.175l0,.009.007,0c-.005.032-.015.061-.022.091,15.233,3.991,30.983,6.606,46.5,9.115l36.843,5.957,20.925,3.383,24.842,4.019q21.751,3.517,43.505,7.033c4.331.7,8.683,1.4,13.047,2.039,18.014,2.646,36.237,4.281,54,.746,4.7-.933,9.325-2.224,13.951-3.514,3.847-1.073,7.693-2.128,11.573-2.991a79.364,79.364,0,0,1,9.822-1.617c22.114-2.057,43.41,7.857,63.253,17.836q42.726,21.492,84.424,44.953c11.727,6.6,30.149,14.147,45.547,23.529-29.611-29.177-67.48-48.722-103.467-70.476h0c-.273-.163-.547-.327-.82-.493q-3.276-1.984-6.519-4c-.672-.416-1.347-.823-2.016-1.24q-3.852-2.412-7.658-4.878c-.2-.131-.4-.256-.6-.383a467.269,467.269,0,0,1-65-51.044Q951.394,103.3,939.409,90.215T916.462,63.178q-10.951-13.943-20.824-28.7l-.057-.08q-1.031-1.548-2.045-3.13c-.33-.508-.651-1.02-.975-1.534s-.654-1.064-.978-1.6a70.819,70.819,0,0,1-7.619-16.3,37.444,37.444,0,0,1-1.7-11.807Q876.74,0,871.216,0h-3.432q-45.249.059-90.473,2.037c-.88,2.652-1.843,5.265-2.824,7.872"/>
      </g>
    </g>
  </g>
</svg>
