<svg xmlns="http://www.w3.org/2000/svg" xmlns:xlink="http://www.w3.org/1999/xlink" width="1920.002" height="1080" viewBox="0 0 1920.002 1080">
  <defs>
    <style>
      .cls-1 {
        fill: none;
      }

      .cls-2, .cls-3 {
        isolation: isolate;
      }

      .cls-3, .cls-7 {
        opacity: 0.059;
      }

      .cls-3 {
        mix-blend-mode: multiply;
      }

      .cls-4 {
        clip-path: url(#clip-path);
      }

      .cls-5 {
        fill: #ffebc2;
      }

      .cls-6 {
        clip-path: url(#clip-path-2);
      }

      .cls-8 {
        clip-path: url(#clip-path-3);
      }

      .cls-9 {
        fill: #f9fcf8;
      }

      .cls-10 {
        clip-path: url(#clip-path-4);
      }

      .cls-11 {
        clip-path: url(#clip-path-5);
      }

      .cls-12 {
        fill: #fafbea;
      }

      .cls-13 {
        opacity: 0.418;
      }

      .cls-14 {
        clip-path: url(#clip-path-6);
      }

      .cls-15 {
        opacity: 0.61;
      }

      .cls-16 {
        clip-path: url(#clip-path-7);
      }

      .cls-17 {
        clip-path: url(#clip-path-8);
      }

      .cls-18 {
        clip-path: url(#clip-path-9);
      }

      .cls-19 {
        opacity: 0.16;
      }

      .cls-20 {
        clip-path: url(#clip-path-10);
      }

      .cls-21 {
        clip-path: url(#clip-path-11);
      }

      .cls-22 {
        clip-path: url(#clip-path-12);
      }

      .cls-23 {
        fill: rgba(255,255,255,0);
      }
    </style>
    <clipPath id="clip-path">
      <rect id="사각형_42" data-name="사각형 42" class="cls-1" width="1920.002" height="523.968"/>
    </clipPath>
    <clipPath id="clip-path-2">
      <rect id="사각형_43" data-name="사각형 43" class="cls-1" width="1920.002" height="281.603"/>
    </clipPath>
    <clipPath id="clip-path-3">
      <rect id="사각형_46" data-name="사각형 46" class="cls-1" width="1920.002" height="285.861"/>
    </clipPath>
    <clipPath id="clip-path-4">
      <rect id="사각형_47" data-name="사각형 47" class="cls-1" width="1920.002" height="422.58"/>
    </clipPath>
    <clipPath id="clip-path-5">
      <rect id="사각형_48" data-name="사각형 48" class="cls-1" width="263.504" height="67.456"/>
    </clipPath>
    <clipPath id="clip-path-6">
      <rect id="사각형_50" data-name="사각형 50" class="cls-1" width="184.812" height="78.756"/>
    </clipPath>
    <clipPath id="clip-path-7">
      <rect id="사각형_51" data-name="사각형 51" class="cls-1" width="278.431" height="59.219"/>
    </clipPath>
    <clipPath id="clip-path-8">
      <rect id="사각형_52" data-name="사각형 52" class="cls-1" width="468.521" height="86.117"/>
    </clipPath>
    <clipPath id="clip-path-9">
      <rect id="사각형_52-2" data-name="사각형 52" class="cls-1" width="234.26" height="43.059"/>
    </clipPath>
    <clipPath id="clip-path-10">
      <rect id="사각형_53" data-name="사각형 53" class="cls-1" width="495.686" height="97.15"/>
    </clipPath>
    <clipPath id="clip-path-11">
      <rect id="사각형_184" data-name="사각형 184" class="cls-1" width="287.812" height="110.756" transform="translate(-18269.811 -15265.024)"/>
    </clipPath>
    <clipPath id="clip-path-12">
      <rect id="사각형_49" data-name="사각형 49" class="cls-1" width="307.578" height="83.41"/>
    </clipPath>
  </defs>
  <g id="그룹_365" data-name="그룹 365" class="cls-2" transform="translate(19902 15584.23)">
    <g id="그룹_370" data-name="그룹 370" class="cls-3" transform="translate(-19902 -15309.059)">
      <g id="그룹_369" data-name="그룹 369">
        <g id="그룹_368" data-name="그룹 368" class="cls-4">
          <path id="패스_3715" data-name="패스 3715" class="cls-5" d="M1913.507,78.9,0,5.371V529.335L1920,274.467c-.752-65.289-3.509-130.427-6.495-195.565" transform="translate(0 -5.371)"/>
        </g>
      </g>
    </g>
    <g id="그룹_373" data-name="그룹 373" class="cls-3" transform="translate(-19902 -15474.61)">
      <g id="그룹_372" data-name="그룹 372">
        <g id="그룹_371" data-name="그룹 371" class="cls-6">
          <path id="패스_3716" data-name="패스 3716" class="cls-5" d="M1918.631,0,0,126.975V275.641L1920,281.6q-.79-140.8-1.371-281.6"/>
        </g>
      </g>
    </g>
    <g id="그룹_382" data-name="그룹 382" class="cls-7" transform="translate(-19902 -15036.496)">
      <g id="그룹_381" data-name="그룹 381">
        <g id="그룹_380" data-name="그룹 380" class="cls-8">
          <path id="패스_3719" data-name="패스 3719" class="cls-9" d="M1913.594,9.3,0,56.8V295.179H1920c-.85-95.445-3.531-190.66-6.407-285.876" transform="translate(0 -9.303)"/>
        </g>
      </g>
    </g>
    <g id="그룹_385" data-name="그룹 385" class="cls-7" transform="translate(-19902 -15171.396)">
      <g id="그룹_384" data-name="그룹 384" transform="translate(0 244.586)">
        <g id="그룹_383" data-name="그룹 383" class="cls-10">
          <path id="패스_3720" data-name="패스 3720" class="cls-5" d="M1920,26.448,0,96.844V449.02H1916.7q2.223-211.272,3.3-422.572" transform="translate(0 -26.459)"/>
        </g>
      </g>
    </g>
    <g id="그룹_388" data-name="그룹 388" transform="translate(-19902 -14818.091)">
      <g id="그룹_387" data-name="그룹 387">
        <g id="그룹_386" data-name="그룹 386" class="cls-11">
          <path id="패스_3721" data-name="패스 3721" class="cls-12" d="M0,114.054H263.5c-5.573-6.924-68.856-17.095-86.228-17.095a60.515,60.515,0,0,0-13.018,1.385c-2.349-4.022-5.595-6.514-9.185-6.514-3.457,0-6.581,2.327-8.908,6.094-2.293-13.406-10.558-23.344-20.441-23.344-5.54,0-10.558,3.135-14.314,8.243-2.249-14.525-8.764-25.039-16.441-25.039-4.9,0-9.317,4.288-12.464,11.145C74,55.369,60.436,46.594,45.158,46.594c-19.012,0-35.364,13.594-42.643,33.082A21.152,21.152,0,0,0,0,77.7Z" transform="translate(-4 -46.594)"/>
        </g>
      </g>
    </g>
    <g id="그룹_394" data-name="그룹 394" class="cls-13" transform="translate(-18166.811 -14695.024)">
      <g id="그룹_393" data-name="그룹 393">
        <g id="그룹_392" data-name="그룹 392" class="cls-14">
          <path id="패스_3723" data-name="패스 3723" class="cls-12" d="M347.514,65.641A41.687,41.687,0,0,0,334.7,63.594c-17.236,0-32.444,10.656-41.419,26.869a11.848,11.848,0,0,0-7.11-2.522c-5.538,0-10.528,4.332-14.02,11.223-5.063-5.356-11.552-8.591-18.625-8.591-13.636,0-25.042,11.936-28.24,28.039-.768-.018-1.535-.018-2.321-.018-35.588,0-54.945,17.968-60.245,23.762H346.454q.466-38.357,1.06-76.714" transform="translate(-162.702 -63.592)"/>
        </g>
      </g>
    </g>
    <g id="그룹_397" data-name="그룹 397" class="cls-15" transform="translate(-19537.328 -14675.192)">
      <g id="그룹_396" data-name="그룹 396">
        <g id="그룹_395" data-name="그룹 395" class="cls-16">
          <path id="패스_3724" data-name="패스 3724" class="cls-12" d="M32.916,121.8c3.977-4.177,59.583-12.253,77.8-15.943,3.634-11.921,12.22-20.3,22.225-20.3a17.848,17.848,0,0,1,3.844.421c6.935-13.96,20.12-23.4,35.265-23.4,13.982,0,26.291,8.01,33.547,20.2a10.248,10.248,0,0,1,5.761-1.894c4.487,0,8.531,13.915,11.367,19.1,4.088-4.022,9.34-17.106,15.079-17.106,11.024,0,20.264,8.963,22.856,21.072.62-.011,1.252-.022,1.883-.022,28.828,0,44.5,13.516,48.8,17.87Z" transform="translate(-32.91 -62.584)"/>
        </g>
      </g>
    </g>
    <g id="그룹_400" data-name="그룹 400" transform="translate(-19070.135 -14904.208)">
      <g id="그룹_399" data-name="그룹 399">
        <g id="그룹_398" data-name="그룹 398" class="cls-17">
          <path id="패스_3725" data-name="패스 3725" class="cls-12" d="M580.129,128.6c-15.029-8.612-43.393-19.513-90.781-19.513q-6.429,0-12.634.225c-1.508-10.769-6.641-19.844-14.685-24.078-8.48-4.472-18.27-2.487-26.446,4.141-8.255-13.745-22.014-22.768-37.611-22.768a40.8,40.8,0,0,0-21.5,6.191C367.5,54.555,351.96,42.477,334.3,42.477c-13.335,0-25.453,6.893-34.463,18.1A21.7,21.7,0,0,0,293,59.424c-10.9,0-20.426,8.255-25.758,20.612a64.733,64.733,0,0,0-24.474-4.7c-23.271,0-43.088,11.774-50.669,28.271-46.568,4.048-72.577,19.514-80.5,24.99Z" transform="translate(-111.607 -42.481)"/>
        </g>
      </g>
    </g>
    <g id="그룹_404" data-name="그룹 404" transform="translate(-19618.135 -15167.981)">
      <g id="그룹_399-2" data-name="그룹 399">
        <g id="그룹_398-2" data-name="그룹 398" class="cls-18">
          <path id="패스_3725-2" data-name="패스 3725" class="cls-12" d="M111.594,85.539c7.514-4.306,21.7-9.757,45.39-9.757q3.215,0,6.317.112c.754-5.384,3.32-9.922,7.342-12.039,4.24-2.236,9.135-1.244,13.223,2.07,4.128-6.873,11.007-11.384,18.806-11.384a20.4,20.4,0,0,1,10.749,3.1c4.485-9.122,12.257-15.161,21.088-15.161,6.668,0,12.727,3.446,17.231,9.049a10.848,10.848,0,0,1,3.42-.576c5.451,0,10.213,4.128,12.879,10.306a32.366,32.366,0,0,1,12.237-2.348c11.635,0,21.544,5.887,25.334,14.136,23.284,2.024,36.288,9.757,40.25,12.5Z" transform="translate(-111.594 -42.479)"/>
        </g>
      </g>
    </g>
    <g id="그룹_403" data-name="그룹 403" class="cls-19" transform="translate(-18868.816 -14673.646)">
      <g id="그룹_402" data-name="그룹 402">
        <g id="그룹_401" data-name="그룹 401" class="cls-20">
          <path id="패스_3726" data-name="패스 3726" class="cls-12" d="M603.564,165.328c-15.889-9.7-45.907-22.016-96.036-22.016q-6.815,0-13.368.264c-1.612-12.166-7.035-22.4-15.537-27.175-8.97-5.042-19.348-2.814-28,4.661-8.707-15.507-23.276-25.651-39.781-25.651a41.265,41.265,0,0,0-22.748,6.977c-9.5-20.579-25.914-34.21-44.617-34.21-14.1,0-26.94,7.768-36.438,20.4a21.817,21.817,0,0,0-7.27-1.29c-11.521,0-21.606,9.322-27.234,23.247a65.033,65.033,0,0,0-25.885-5.306c-24.625,0-45.614,13.28-53.617,31.894-49.249,4.573-76.776,22.016-85.16,28.2Z" transform="translate(-107.878 -68.187)"/>
        </g>
      </g>
    </g>
    <g id="마스크_그룹_33" data-name="마스크 그룹 33" class="cls-21">
      <g id="그룹_391" data-name="그룹 391" transform="translate(-18243.621 -15251.392)">
        <g id="그룹_390" data-name="그룹 390">
          <g id="그룹_389" data-name="그룹 389" class="cls-22">
            <path id="패스_3722" data-name="패스 3722" class="cls-12" d="M69.255,105.472c3.43-5.873,68.738-17.262,84.371-22.456,3.134-16.793,10.5-28.588,19.1-28.588a9.767,9.767,0,0,1,3.294.592c5.96-19.668,17.3-32.956,30.316-32.956,11.993,0,22.567,11.29,28.811,28.453,1.53-1.715,3.2-2.677,4.948-2.677,3.862,0,7.329,4.59,9.76,11.894,3.517-5.676,8.032-9.094,12.956-9.094,9.476,0,17.422,12.635,19.643,29.687.531-.012,1.073-.025,1.616-.025,24.763,0,89.072,19.038,92.761,25.171Z" transform="translate(-69.256 -22.057)"/>
          </g>
        </g>
      </g>
    </g>
    <rect id="사각형_185" data-name="사각형 185" class="cls-23" width="1920" height="225" transform="translate(-19902 -15584.23)"/>
  </g>
</svg>
