<?xml version="1.0" encoding="utf-8"?>
<!-- Generator: Adobe Illustrator 26.1.0, SVG Export Plug-In . SVG Version: 6.00 Build 0)  -->
<svg version="1.1" id="Layer_1" xmlns="http://www.w3.org/2000/svg" xmlns:xlink="http://www.w3.org/1999/xlink" x="0px" y="0px"
	 viewBox="0 0 2012 618.4" style="enable-background:new 0 0 2012 618.4;" xml:space="preserve">
<style type="text/css">
	.st0{opacity:0.61;}
	.st1{clip-path:url(#SVGID_00000042007690505350747330000010660998300745840037_);}
	.st2{fill:#FAFBEA;}
	.st3{clip-path:url(#SVGID_00000029766687404714323850000017225653810024283823_);}
	.st4{clip-path:url(#SVGID_00000108271418699964430910000008235872485025035438_);}
	.st5{clip-path:url(#SVGID_00000159456517110078696670000005942813472204578749_);}
	.st6{opacity:0.531;}
	.st7{clip-path:url(#SVGID_00000031196191933831146980000015629245863722514586_);}
	.st8{opacity:0.794;}
	.st9{clip-path:url(#SVGID_00000129922229341620327690000017026467647572494258_);}
</style>
<g id="그룹_900" transform="translate(20053.881 18178.016)">
	<g id="그룹_397" transform="translate(-19638.328 -17643.961)" class="st0">
		<g id="그룹_396">
			<g>
				<defs>
					<rect id="SVGID_1_" x="179.5" y="-68.4" width="193.8" height="41.2"/>
				</defs>
				<clipPath id="SVGID_00000082360571285241973180000002034379671977324475_">
					<use xlink:href="#SVGID_1_"  style="overflow:visible;"/>
				</clipPath>
				<g id="그룹_395" style="clip-path:url(#SVGID_00000082360571285241973180000002034379671977324475_);">
					<path id="패스_3724" class="st2" d="M179.5-27.1c2.8-2.9,41.5-8.5,54.1-11.1c2.5-8.3,8.5-14.1,15.5-14.1
						c0.9,0,1.8,0.1,2.7,0.3c4.8-9.7,14-16.3,24.5-16.3c9.7,0,18.3,5.6,23.3,14.1c1.2-0.8,2.6-1.3,4-1.3c3.1,0,5.9,9.7,7.9,13.3
						c2.8-2.8,6.5-11.9,10.5-11.9c7.7,0,14.1,6.2,15.9,14.7c0.4,0,0.9,0,1.3,0c20.1,0,31,9.4,34,12.4L179.5-27.1z"/>
				</g>
			</g>
		</g>
	</g>
	<g id="그룹_400" transform="translate(-19171.135 -17872.977)">
		<g id="그룹_399">
			<g>
				<defs>
					<rect id="SVGID_00000089548565219931245740000005496709860157112459_" x="37.5" y="1.3" width="326.1" height="59.9"/>
				</defs>
				<clipPath id="SVGID_00000176005681996665359100000010141245688785366207_">
					<use xlink:href="#SVGID_00000089548565219931245740000005496709860157112459_"  style="overflow:visible;"/>
				</clipPath>
				<g id="그룹_398" style="clip-path:url(#SVGID_00000176005681996665359100000010141245688785366207_);">
					<path id="패스_3725" class="st2" d="M363.6,61.2c-10.5-6-30.2-13.6-63.2-13.6c-3,0-5.9,0.1-8.8,0.2
						c-1-7.5-4.6-13.8-10.2-16.8c-5.9-3.1-12.7-1.7-18.4,2.9c-5.7-9.6-15.3-15.8-26.2-15.8c-5.3,0-10.5,1.5-15,4.3
						c-6.2-12.7-17.1-21.1-29.4-21.1c-9.3,0-17.7,4.8-24,12.6c-1.5-0.5-3.1-0.8-4.8-0.8c-7.6,0-14.2,5.7-17.9,14.3
						c-5.4-2.2-11.2-3.3-17-3.3c-16.2,0-30,8.2-35.3,19.7c-32.4,2.8-50.5,13.6-56,17.4L363.6,61.2z"/>
				</g>
			</g>
		</g>
	</g>
	<g id="그룹_399-2" transform="translate(-18693.227 -17635.961)">
		<g>
			<defs>
				<rect id="SVGID_00000181768802600614350140000003181458195152256136_" x="-107.8" y="-70.8" width="289.1" height="53.1"/>
			</defs>
			<clipPath id="SVGID_00000070098963798788201500000017100432056381784243_">
				<use xlink:href="#SVGID_00000181768802600614350140000003181458195152256136_"  style="overflow:visible;"/>
			</clipPath>
			<g id="그룹_398-2" style="clip-path:url(#SVGID_00000070098963798788201500000017100432056381784243_);">
				<path id="패스_3725-2" class="st2" d="M-107.8-17.6c9.3-5.3,26.8-12,56-12c2.6,0,5.2,0,7.8,0.1c0.9-6.6,4.1-12.2,9.1-14.9
					c5.2-2.8,11.3-1.5,16.3,2.6c5.1-8.5,13.6-14,23.2-14c4.7,0,9.3,1.3,13.3,3.8c5.5-11.3,15.1-18.7,26-18.7
					c8.2,0,15.7,4.3,21.3,11.2c1.4-0.5,2.8-0.7,4.2-0.7c6.7,0,12.6,5.1,15.9,12.7c4.8-1.9,9.9-2.9,15.1-2.9
					c14.4,0,26.6,7.3,31.3,17.4c28.7,2.5,44.8,12,49.7,15.4L-107.8-17.6z"/>
			</g>
		</g>
	</g>
	<g id="그룹_403" transform="translate(-20053.881 -17776.592)">
		<g id="그룹_402">
			<g>
				<defs>
					<rect id="SVGID_00000008114183697849568620000004318426698971943564_" x="305.8" y="-28" width="203.1" height="39.8"/>
				</defs>
				<clipPath id="SVGID_00000074431403886018731150000013064067941298872212_">
					<use xlink:href="#SVGID_00000008114183697849568620000004318426698971943564_"  style="overflow:visible;"/>
				</clipPath>
				<g id="그룹_401" style="clip-path:url(#SVGID_00000074431403886018731150000013064067941298872212_);">
					<path id="패스_3726" class="st2" d="M305.8,11.8c6.5-4,18.8-9,39.4-9c1.9,0,3.7,0,5.5,0.1c0.7-5,2.9-9.2,6.4-11.1
						c3.7-2.1,7.9-1.2,11.5,1.9c3.6-6.4,9.5-10.5,16.3-10.5c3.3,0,6.6,1,9.3,2.9c3.9-8.4,10.6-14,18.3-14c5.8,0,11,3.2,14.9,8.4
						c1-0.3,2-0.5,3-0.5c4.7,0,8.9,3.8,11.2,9.5c3.3-1.4,7-2.2,10.6-2.2c10.1,0,18.7,5.4,22,13.1c20.2,1.9,31.5,9,34.9,11.6
						L305.8,11.8z"/>
				</g>
			</g>
		</g>
	</g>
	<g id="그룹_397-2" transform="translate(-18400.225 -18178.016)" class="st6">
		<g id="그룹_396-2">
			<g>
				<defs>
					<rect id="SVGID_00000113315968143064227600000011036386135825182897_" x="-196.9" y="94" width="249.4" height="53.1"/>
				</defs>
				<clipPath id="SVGID_00000155849748837117608320000000609756525291579042_">
					<use xlink:href="#SVGID_00000113315968143064227600000011036386135825182897_"  style="overflow:visible;"/>
				</clipPath>
				<g id="그룹_395-2" style="clip-path:url(#SVGID_00000155849748837117608320000000609756525291579042_);">
					<path id="패스_3724-2" class="st2" d="M52.6,147c-3.6-3.7-53.4-11-69.7-14.3c-3.3-10.7-10.9-18.2-19.9-18.2
						c-1.2,0-2.3,0.1-3.4,0.4c-6.2-12.5-18-21-31.6-21c-12.5,0-23.6,7.2-30.1,18.1c-1.5-1.1-3.3-1.7-5.2-1.7
						c-4,0-7.6,12.5-10.2,17.1c-3.7-3.6-8.4-15.3-13.5-15.3c-9.9,0-18.2,8-20.5,18.9c-0.6,0-1.1,0-1.7,0c-25.8,0-39.9,12.1-43.7,16
						L52.6,147z"/>
				</g>
			</g>
		</g>
	</g>
	<g id="그룹_399-3" transform="translate(-19719.135 -18136.75)" class="st8">
		<g>
			<defs>
				<rect id="SVGID_00000123443556081758044600000010446843312306541705_" x="204.1" y="81.4" width="163" height="30"/>
			</defs>
			<clipPath id="SVGID_00000165205928806838602950000012444321798221895596_">
				<use xlink:href="#SVGID_00000123443556081758044600000010446843312306541705_"  style="overflow:visible;"/>
			</clipPath>
			<g id="그룹_398-3" style="clip-path:url(#SVGID_00000165205928806838602950000012444321798221895596_);">
				<path id="패스_3725-3" class="st2" d="M204.1,111.4c5.2-3,15.1-6.8,31.6-6.8c1.5,0,3,0,4.4,0.1c0.5-3.7,2.3-6.9,5.1-8.4
					c3-1.6,6.4-0.9,9.2,1.4c2.9-4.8,7.7-7.9,13.1-7.9c2.6,0,5.2,0.8,7.5,2.2c3.1-6.3,8.5-10.6,14.7-10.6c4.6,0,8.9,2.4,12,6.3
					c0.8-0.3,1.6-0.4,2.4-0.4c3.8,0,7.1,2.9,9,7.2c2.7-1.1,5.6-1.6,8.5-1.6c8.1,0,15,4.1,17.6,9.8c16.2,1.4,25.3,6.8,28,8.7
					L204.1,111.4z"/>
			</g>
		</g>
	</g>
</g>
</svg>
