<svg xmlns="http://www.w3.org/2000/svg" width="38" height="38" viewBox="0 0 38 38">
  <defs>
    <style>
      .cls-1 {
        fill: #ff453a;
      }
    </style>
  </defs>
  <path id="ic_button_error" class="cls-1" d="M46,27A19,19,0,1,1,27,8,19,19,0,0,1,46,27ZM27,30.831a3.524,3.524,0,1,0,3.524,3.524A3.524,3.524,0,0,0,27,30.831ZM23.654,18.163l.568,10.419a.919.919,0,0,0,.918.869H28.86a.919.919,0,0,0,.918-.869l.568-10.419a.919.919,0,0,0-.918-.969H24.572A.919.919,0,0,0,23.654,18.163Z" transform="translate(-8 -8)"/>
</svg>
