<svg id="그룹_620" data-name="그룹 620" xmlns="http://www.w3.org/2000/svg" width="70.549" height="70.539" viewBox="0 0 70.549 70.539">
  <defs>
    <style>
      .cls-1 {
        fill: #2ffff7;
      }

      .cls-2 {
        fill: #ffd707;
      }
    </style>
  </defs>
  <path id="패스_3742" data-name="패스 3742" class="cls-1" d="M18.89,33.7a2.616,2.616,0,0,1-1.869-.776L8.17,24.112a2.643,2.643,0,0,1,3.738-3.738l6.982,6.947L36.452,9.76A2.643,2.643,0,0,1,40.19,13.5L20.759,32.928A2.616,2.616,0,0,1,18.89,33.7Z" transform="translate(11.659 15.676)"/>
  <path id="패스_3743" data-name="패스 3743" class="cls-2" d="M37.237,72.536A35.27,35.27,0,0,1,2.007,38.118,35.356,35.356,0,0,1,36.426,2.007,35.288,35.288,0,0,1,72.537,36.425h0A35.288,35.288,0,0,1,38.118,72.536ZM37.307,7.3h-.741a29.982,29.982,0,0,0-19.96,51.663A30.02,30.02,0,0,0,59,57.937a29.623,29.623,0,0,0,8.252-21.406h0A29.912,29.912,0,0,0,37.307,7.3Z" transform="translate(-1.997 -1.997)"/>
</svg>
