<?xml version="1.0" standalone="no"?>
<!DOCTYPE svg PUBLIC "-//W3C//DTD SVG 20010904//EN"
 "http://www.w3.org/TR/2001/REC-SVG-20010904/DTD/svg10.dtd">
<svg version="1.0" xmlns="http://www.w3.org/2000/svg"
 width="192.000000pt" height="192.000000pt" viewBox="0 0 192.000000 192.000000"
 preserveAspectRatio="xMidYMid meet">

<g transform="translate(0.000000,192.000000) scale(0.100000,-0.100000)"
fill="#000000" stroke="none">
<path d="M427 1512 l-77 -77 0 -330 0 -330 305 -305 305 -305 305 305 305 305
0 330 0 330 -77 77 -78 78 -227 -227 -228 -228 -228 228 -227 227 -78 -78z
m423 -344 c0 -4 -12 -2 -26 4 -23 11 -29 10 -45 -11 -28 -34 -27 -163 1 -191
16 -16 24 -18 52 -8 18 6 47 21 65 34 40 30 86 30 126 0 48 -35 91 -47 113
-32 34 25 35 169 1 203 -12 13 -21 13 -46 5 -17 -6 -31 -8 -31 -4 0 9 283 292
292 292 5 0 8 -80 8 -177 l0 -177 -75 -110 c-68 -101 -86 -139 -194 -416 -66
-167 -124 -306 -128 -307 -4 -1 -62 135 -128 304 -111 283 -126 314 -197 419
l-78 114 0 177 0 178 145 -145 c80 -80 145 -148 145 -152z"/>
</g>
</svg>
