<?xml version="1.0" encoding="utf-8"?>
<!-- Generator: Adobe Illustrator 26.1.0, SVG Export Plug-In . SVG Version: 6.00 Build 0)  -->
<svg version="1.1" id="a" xmlns="http://www.w3.org/2000/svg" xmlns:xlink="http://www.w3.org/1999/xlink" x="0px" y="0px"
	 viewBox="0 0 15.5 15.5" style="enable-background:new 0 0 15.5 15.5;" xml:space="preserve">
<style type="text/css">
	.st0{fill:#F5D023;}
	.st1{fill:#231815;}
</style>
<path class="st0" d="M14.9,7.7c1.2,3.9-3.2,6-7.2,7.2C3.9,16,1.3,11.5,0.5,7.7S3.7,1,7.7,0.5S13.8,3.9,14.9,7.7L14.9,7.7z"/>
<g>
	<path class="st1" d="M4.6,3.5c0-0.1,0-0.2,0.1-0.2l2.1-0.4C6.9,2.9,7,2.9,7,3l1.3,7.1l2.1-0.4c0.1,0,0.2,0,0.2,0.1l0.3,1.8
		c0,0.1,0,0.2-0.1,0.2l-4.3,0.8c-0.1,0-0.2,0-0.2-0.1L4.6,3.5z"/>
</g>
</svg>
