<?xml version="1.0" encoding="utf-8"?>
<!-- Generator: Adobe Illustrator 26.1.0, SVG Export Plug-In . SVG Version: 6.00 Build 0)  -->
<svg version="1.1" id="a" xmlns="http://www.w3.org/2000/svg" xmlns:xlink="http://www.w3.org/1999/xlink" x="0px" y="0px"
	 viewBox="0 0 15.5 15.5" style="enable-background:new 0 0 15.5 15.5;" xml:space="preserve">
<style type="text/css">
	.st0{fill:#F5D023;}
	.st1{fill:#15161D;}
</style>
<path class="st0" d="M14.9,7.7c1.2,3.9-3.2,6-7.2,7.2C3.9,16,1.3,11.5,0.5,7.7S3.7,1,7.7,0.5S13.8,3.9,14.9,7.7L14.9,7.7z"/>
<path class="st1" d="M5.1,3.8c0-0.1,0-0.1,0.1-0.1c0.3,0,0.5-0.1,0.9-0.1c0.3,0,0.7,0,1,0c0.2,0,0.4,0,0.6,0s0.4,0,0.6,0.1
	s0.4,0.1,0.6,0.2C9.1,4,9.2,4.1,9.4,4.2C9.6,4.4,9.8,4.7,9.9,5c0.1,0.3,0.2,0.6,0.2,1c0,0.4-0.1,0.8-0.2,1.1C9.7,7.4,9.4,7.7,9,7.9
	c0.4,0.3,0.6,0.7,0.8,1.4c0,0.2,0.1,0.4,0.1,0.6s0.1,0.4,0.1,0.6s0.1,0.4,0.1,0.6s0.1,0.3,0.1,0.4c0,0,0,0.1,0,0.1s-0.1,0.1-0.1,0.1
	L8.3,12c0,0-0.1,0-0.1-0.1c0-0.1-0.1-0.2-0.1-0.3C8.1,11.4,8,11.2,8,11c0-0.2-0.1-0.4-0.1-0.6S7.8,10,7.8,9.8
	C7.7,9.3,7.7,9.1,7.6,8.9C7.5,8.8,7.4,8.7,7.2,8.7H7.1v2.9c0,0.1,0,0.1-0.1,0.1H5.2c-0.1,0-0.1,0-0.1-0.1L5.1,3.8L5.1,3.8z M7.2,7
	h0.1c0.3,0,0.4-0.1,0.6-0.3S8,6.3,8,6.1S8,5.6,7.9,5.5S7.6,5.2,7.4,5.2H7.2c0,0-0.1,0-0.1,0L7.2,7L7.2,7z"/>
</svg>
