<?xml version="1.0" encoding="UTF-8"?><svg id="a" xmlns="http://www.w3.org/2000/svg" viewBox="0 0 26.74 13.14"><defs><style>.b{fill:#f5d023;}.c{fill:#15161d;}</style></defs><path class="b" d="M26.16,6.51c.97,3.26-2.63,4.95-5.97,5.97-3.15,.96-5.28-2.75-5.97-5.97S16.89,.99,20.18,.54c3.27-.44,5.03,2.81,5.97,5.97Z"/><g><path class="c" d="M.42,3.29c0-.07,.04-.12,.11-.13,.26-.05,.54-.09,.86-.11,.32-.03,.65-.04,.98-.04,.21,0,.42,.01,.64,.03s.42,.05,.62,.1c.2,.05,.39,.11,.57,.2,.18,.08,.34,.19,.49,.31,.26,.23,.44,.49,.54,.79,.1,.29,.16,.62,.16,.98,0,.38-.08,.75-.25,1.1-.16,.35-.43,.63-.8,.86,.39,.26,.65,.74,.77,1.44,.03,.19,.07,.4,.11,.62,.04,.22,.09,.43,.14,.64s.09,.39,.13,.55c.04,.16,.08,.28,.12,.35,.02,.04,.02,.08,0,.12s-.06,.06-.11,.07l-1.88,.23s-.09-.02-.12-.07c-.02-.06-.05-.16-.09-.31-.04-.15-.07-.33-.11-.53-.04-.2-.07-.41-.11-.64s-.07-.44-.09-.65c-.06-.42-.13-.69-.22-.83-.09-.14-.22-.2-.38-.2h-.05v2.87c0,.09-.04,.13-.12,.13H.54c-.08,0-.12-.04-.12-.13V3.29Zm2.04,3.2h.11c.26,0,.44-.09,.56-.28,.12-.19,.18-.41,.18-.65s-.05-.47-.15-.64-.27-.26-.5-.26h-.11s-.07,0-.1,.01v1.82Z"/><path class="c" d="M10.43,9.7c0,.23,0,.45,.02,.67,.01,.21,.04,.42,.08,.62,0,.04,0,.07-.02,.1-.02,.03-.06,.05-.1,.05l-1.61,.23c-.09,.02-.13-.02-.13-.11l-.08-.49c-.16,.14-.35,.26-.56,.34-.22,.08-.44,.13-.66,.13-.25,0-.48-.05-.68-.14-.21-.1-.39-.23-.54-.4-.15-.17-.27-.37-.35-.61-.08-.23-.13-.48-.13-.76,0-.39,.08-.73,.23-1.01,.16-.28,.36-.51,.62-.7,.26-.18,.54-.32,.86-.41,.32-.09,.64-.15,.97-.16,0-.06-.04-.11-.1-.16s-.13-.1-.21-.13c-.08-.04-.18-.06-.28-.08-.1-.02-.2-.03-.29-.03-.04,0-.08-.02-.11-.05s-.04-.07-.02-.11l.23-1.28c.02-.07,.06-.11,.12-.11,.07,0,.14-.01,.21-.02s.14,0,.22,0c.53,0,.94,.08,1.25,.25,.3,.17,.54,.38,.7,.64,.16,.26,.26,.54,.31,.86,.04,.32,.07,.62,.07,.91v1.98Zm-2.03-1.27c-.21,.02-.39,.08-.56,.19s-.25,.28-.25,.51c0,.2,.04,.34,.13,.43s.16,.13,.23,.13,.15-.02,.23-.06,.15-.1,.19-.19c.02-.05,.02-.11,.02-.19v-.8Z"/><path class="c" d="M10.93,7.12c0-.22,0-.42,0-.58,0-.16-.01-.33-.02-.5,0-.06,0-.13,0-.19,0-.06-.01-.13-.02-.21,0-.05,.03-.09,.08-.12l1.55-.59s.08-.01,.11,.01c.03,.02,.05,.06,.06,.1l.08,.58c.17-.18,.37-.31,.59-.41,.23-.1,.47-.14,.74-.14,.32,0,.59,.06,.81,.19,.22,.12,.4,.29,.53,.5,.13,.21,.23,.46,.28,.74,.06,.28,.08,.59,.08,.92v2.42c0,.11,.02,.23,.05,.36,.04,.13,.07,.25,.11,.35s.1,.24,.17,.39c.02,.04,.02,.08,0,.12s-.06,.06-.11,.07l-1.8,.23s-.06,0-.08-.02l-.05-.05c-.07-.22-.13-.4-.17-.55-.04-.15-.08-.31-.12-.47-.04-.17-.05-.31-.05-.43v-.76c0-.28,0-.54,0-.77,0-.24,0-.43,0-.59v-.24c0-.17-.02-.32-.07-.45-.04-.13-.13-.2-.27-.2s-.25,.09-.34,.28h0c-.06,.08-.08,.24-.08,.47v3.43c0,.09-.04,.13-.12,.13h-1.81c-.08,0-.12-.04-.12-.13v-3.89Z"/><path class="c" d="M20.96,9.7c0,.23,0,.45,.02,.67,.01,.21,.04,.42,.08,.62,0,.04,0,.07-.02,.1-.02,.03-.06,.05-.1,.05l-1.61,.23c-.09,.02-.13-.02-.13-.11l-.08-.49c-.16,.14-.35,.26-.56,.34-.22,.08-.44,.13-.66,.13-.25,0-.48-.05-.68-.14-.21-.1-.39-.23-.54-.4-.15-.17-.27-.37-.35-.61-.08-.23-.13-.48-.13-.76,0-.39,.08-.73,.23-1.01,.16-.28,.36-.51,.62-.7,.26-.18,.54-.32,.86-.41,.32-.09,.64-.15,.97-.16,0-.06-.04-.11-.1-.16s-.13-.1-.21-.13c-.08-.04-.18-.06-.28-.08-.1-.02-.2-.03-.29-.03-.04,0-.08-.02-.11-.05s-.04-.07-.02-.11l.23-1.28c.02-.07,.06-.11,.12-.11,.07,0,.14-.01,.21-.02s.14,0,.22,0c.53,0,.94,.08,1.25,.25,.3,.17,.54,.38,.7,.64,.16,.26,.26,.54,.31,.86,.04,.32,.07,.62,.07,.91v1.98Zm-2.03-1.27c-.21,.02-.39,.08-.56,.19s-.25,.28-.25,.51c0,.2,.04,.34,.13,.43s.16,.13,.23,.13,.15-.02,.23-.06,.15-.1,.19-.19c.02-.05,.02-.11,.02-.19v-.8Z"/><path class="c" d="M21.69,4.38c-.22-.22-.33-.51-.33-.86s.11-.66,.34-.88,.49-.33,.8-.33,.58,.11,.8,.32c.22,.22,.33,.51,.34,.89,0,.35-.11,.64-.34,.86s-.5,.34-.82,.34-.58-.11-.8-.34Zm-.08,6.76c-.08,0-.12-.04-.12-.13V5.28c0-.08,.04-.12,.12-.12h1.81c.08,0,.12,.04,.12,.12v5.72c0,.09-.04,.13-.12,.13h-1.81Z"/></g></svg>