<?xml version="1.0" encoding="utf-8"?>
<!-- Generator: Adobe Illustrator 26.1.0, SVG Export Plug-In . SVG Version: 6.00 Build 0)  -->
<svg version="1.1" id="a" xmlns="http://www.w3.org/2000/svg" xmlns:xlink="http://www.w3.org/1999/xlink" x="0px" y="0px"
	 viewBox="0 0 26.7 13.1" style="enable-background:new 0 0 26.7 13.1;" xml:space="preserve">
<style type="text/css">
	.st0{fill:#F4CF21;}
	.st1{fill:#14161D;}
	.st2{fill:#231815;}
</style>
<g>
	<path class="st0" d="M20.2,12.5L4.3,12.6c-2.2,0-3.9-2.4-3.9-4.6l0.3-3.4c0-2.2,2-3.7,4.2-3.7l18.4-0.3c2.2,0,2.6,2.1,2.6,4.3
		L26.3,9C26.2,11.2,25.8,12.8,20.2,12.5z"/>
	<g>
		<path class="st1" d="M11.3,8.9c0,0.2,0,0.4,0,0.6c0,0.2,0,0.4,0.1,0.6v0.1h-0.1l-1.6,0.3c-0.1,0-0.1,0-0.1-0.1L9.5,9.9
			C9.4,10,9.2,10.1,9,10.2s-0.4,0.1-0.6,0.1c-0.2,0-0.4,0-0.6-0.1C7.6,10.1,7.4,10,7.3,9.8C7.1,9.6,7,9.5,6.9,9.2
			c0-0.2-0.1-0.4-0.1-0.7c0-0.4,0.1-0.7,0.2-0.9c0.2-0.3,0.4-0.5,0.6-0.6c0.2-0.2,0.5-0.3,0.8-0.4S9,6.6,9.3,6.5
			c0-0.1,0-0.1-0.1-0.2C9.1,6.3,9.1,6.2,9,6.2c0,0-0.1,0-0.2,0c-0.1,0-0.2,0-0.3,0H8.4V6.1l0.2-1.2c0.1-0.1,0.1-0.2,0.1-0.2
			c0.1,0,0.1,0,0.2,0c0.1,0,0.1,0,0.2,0c0.5,0,0.9,0.1,1.2,0.2c0.3,0.2,0.5,0.4,0.6,0.6s0.2,0.5,0.3,0.8c0,0.3,0.1,0.6,0.1,0.8V8.9z
			 M9.4,7.8C9.2,7.8,9,7.8,8.9,7.9C8.7,8.1,8.6,8.1,8.6,8.4c0,0.2,0,0.3,0.1,0.4c0.1,0.1,0.1,0.1,0.2,0.1c0.1,0,0.1,0,0.2-0.1
			c0.1,0,0.1-0.1,0.2-0.2c0,0,0-0.1,0-0.2L9.4,7.8z"/>
		<path class="st1" d="M11.9,6.2c0-0.2,0-0.4,0-0.5s0-0.3,0-0.5c0-0.1,0-0.1,0-0.2s0-0.1,0-0.2c0,0,0-0.1,0.1-0.1l1.4-0.6h0.1
			c0,0,0,0.1,0.1,0.1l0.1,0.5c0.2-0.2,0.3-0.3,0.6-0.4c0.2-0.1,0.4-0.1,0.7-0.1s0.5,0.1,0.8,0.2c0.2,0.1,0.4,0.3,0.5,0.5
			s0.2,0.4,0.3,0.7c0.1,0.3,0.1,0.5,0.1,0.9v2.3c0,0.1,0,0.2,0,0.3s0.1,0.2,0.1,0.3s0.1,0.2,0.2,0.4v0.1l-0.1,0.1l-2,0.1h-0.1
			c0,0,0,0-0.1-0.1c0-0.1,0-0.3-0.1-0.4c0-0.1-0.1-0.3-0.1-0.4c0-0.2,0-0.3,0-0.4c0-0.2,0-0.4,0-0.7c0-0.3,0-0.5,0-0.7s0-0.4,0-0.6
			V6.7c0-0.2,0-0.3-0.1-0.4c0-0.1-0.1-0.2-0.2-0.2c-0.1,0-0.2,0.1-0.3,0.3l0,0c-0.1,0.1-0.1,0.2-0.1,0.4V10c0,0.1,0,0.1-0.1,0.1H12
			c-0.1,0-0.1,0-0.1-0.1L11.9,6.2z"/>
		<path class="st1" d="M21.3,8.8c0,0.2,0,0.4,0,0.6c0,0.2,0,0.4,0.1,0.6v0.1h-0.1l-1.5,0.2c-0.1,0-0.1,0-0.1-0.1l-0.1-0.5
			c-0.2,0.1-0.3,0.2-0.5,0.3c-0.2,0.2-0.4,0.2-0.6,0.2s-0.4,0-0.6-0.1s-0.4-0.2-0.5-0.4S17.2,9.3,17.1,9C17,8.8,17,8.5,17,8.3
			c0-0.4,0.1-0.7,0.2-0.9c0.1-0.3,0.3-0.5,0.6-0.6c0.2-0.2,0.5-0.3,0.8-0.4s0.6-0.1,0.9-0.1c0-0.1,0-0.1-0.1-0.2
			c-0.1,0-0.1-0.1-0.2-0.1S19,6,18.9,6c-0.1,0-0.2,0-0.3,0h-0.1V5.9l0.2-1.3c0-0.1,0.1-0.1,0.1-0.1c0.1,0,0.1,0,0.2,0s0.1,0,0.2,0
			c0.5,0,0.9,0.1,1.2,0.2c0.3,0.2,0.5,0.4,0.6,0.6s0.2,0.5,0.3,0.8c0,0.3,0.1,0.6,0.1,0.8L21.3,8.8z M19.5,7.6
			c-0.2,0-0.4,0.1-0.5,0.2c-0.2,0.1-0.3,0.3-0.3,0.5s0,0.3,0.1,0.4c0.1,0.1,0.1,0.1,0.2,0.1s0.1,0,0.2-0.1c0.1,0,0.1-0.1,0.2-0.2
			c0,0,0-0.1,0-0.2L19.5,7.6z"/>
		<path class="st1" d="M22.5,4.3c-0.2-0.2-0.3-0.5-0.2-0.8c0-0.3,0.1-0.6,0.4-0.8c0.2-0.2,0.5-0.3,0.8-0.3s0.5,0.1,0.7,0.4
			c0.2,0.2,0.3,0.5,0.3,0.8s-0.1,0.6-0.4,0.8c-0.2,0.2-0.5,0.3-0.8,0.3C22.9,4.8,22.7,4.7,22.5,4.3z M22,10.6c-0.1,0-0.1,0-0.1-0.1
			l0.4-5.3c0-0.1,0-0.1,0.1-0.1l1.7,0.1c0.1,0,0.1,0,0.1,0.1l-0.4,5.3c0,0.1,0,0.1-0.1,0.1L22,10.6z"/>
		<g>
			<path class="st2" d="M2.2,3.8c0-0.1,0-0.1,0.1-0.1l1.6-0.1C4,3.5,4,3.5,4,3.6L4.5,9l1.6-0.1c0.1,0,0.1,0,0.1,0.1l0.1,1.3
				c0,0.1,0,0.1-0.1,0.1L3,10.7c-0.1,0-0.1,0-0.1-0.1L2.2,3.8z"/>
		</g>
	</g>
</g>
</svg>
