<?xml version="1.0" encoding="utf-8"?>
<!-- Generator: Adobe Illustrator 26.1.0, SVG Export Plug-In . SVG Version: 6.00 Build 0)  -->
<svg version="1.1" id="a" xmlns="http://www.w3.org/2000/svg" xmlns:xlink="http://www.w3.org/1999/xlink" x="0px" y="0px"
	 viewBox="0 0 26.7 13.1" style="enable-background:new 0 0 26.7 13.1;" xml:space="preserve">
<style type="text/css">
	.st0{fill:#F4CF21;}
	.st1{fill:#14161D;}
</style>
<g>
	<path class="st0" d="M20.2,12.5L4.3,12.6c-2.2,0-3.9-2.4-3.9-4.6l0.3-3.4c0-2.2,2-3.7,4.2-3.7l18.4-0.3c2.2,0,2.6,2.1,2.6,4.3
		L26.3,9C26.2,11.2,25.8,12.8,20.2,12.5z"/>
	<g>
		<path class="st1" d="M1.9,3.4c0-0.1,0-0.1,0.1-0.1c0.2-0.1,0.5-0.1,0.8-0.2c0.3,0,0.6-0.1,0.9-0.1c0.2,0,0.4,0,0.6,0
			c0.2,0,0.4,0,0.6,0.1c0.2,0,0.4,0.1,0.5,0.2c0.2,0.1,0.3,0.2,0.5,0.3C6.1,3.7,6.3,4,6.4,4.2c0.1,0.3,0.2,0.6,0.2,0.9
			c0,0.4,0,0.7-0.2,1C6.3,6.5,6,6.8,5.7,7c0.4,0.2,0.6,0.7,0.8,1.3c0,0.2,0.1,0.4,0.1,0.6c0.1,0.2,0.1,0.4,0.2,0.6
			C6.9,9.6,6.9,9.8,7,9.9c0,0.1,0.1,0.3,0.1,0.3c0,0,0,0.1,0,0.1c0,0-0.1,0.1-0.1,0.1l-1.7,0.3c0,0-0.1,0-0.1-0.1
			c0-0.1-0.1-0.1-0.1-0.3c0-0.1-0.1-0.3-0.1-0.5c0-0.2-0.1-0.4-0.1-0.6c0-0.2-0.1-0.4-0.1-0.6C4.6,8.4,4.5,8.1,4.4,8
			C4.3,7.9,4.2,7.8,4.1,7.8l0,0l0.1,2.7c0,0.1,0,0.1-0.1,0.1l-1.7,0.1c-0.1,0-0.1,0-0.1-0.1L1.9,3.4z M3.9,6.3l0.1,0
			c0.2,0,0.4-0.1,0.5-0.3c0.1-0.2,0.1-0.4,0.1-0.6c0-0.2-0.1-0.4-0.2-0.6C4.4,4.7,4.2,4.6,4,4.6c0,0-0.1,0-0.1,0c0,0-0.1,0-0.1,0
			L3.9,6.3z"/>
		<path class="st1" d="M11.6,8.8c0,0.2,0,0.4,0,0.6c0,0.2,0,0.4,0.1,0.6c0,0,0,0.1,0,0.1c0,0-0.1,0-0.1,0L10,10.4
			c-0.1,0-0.1,0-0.1-0.1L9.8,9.8C9.7,9.9,9.5,10,9.3,10.1c-0.2,0.1-0.4,0.1-0.6,0.1c-0.2,0-0.4,0-0.6-0.1C7.9,10,7.7,9.9,7.6,9.7
			C7.4,9.5,7.3,9.4,7.2,9.1C7.2,8.9,7.1,8.7,7.1,8.4c0-0.4,0.1-0.7,0.2-0.9C7.5,7.2,7.7,7,7.9,6.9c0.2-0.2,0.5-0.3,0.8-0.4
			C9,6.4,9.3,6.4,9.6,6.3c0-0.1,0-0.1-0.1-0.2c-0.1,0-0.1-0.1-0.2-0.1C9.3,6,9.2,6,9.1,6C9,6,8.9,6,8.8,6c0,0-0.1,0-0.1,0
			c0,0,0-0.1,0-0.1l0.2-1.2C9,4.6,9,4.5,9,4.5c0.1,0,0.1,0,0.2,0c0.1,0,0.1,0,0.2,0c0.5,0,0.9,0.1,1.2,0.2c0.3,0.2,0.5,0.4,0.6,0.6
			c0.1,0.2,0.2,0.5,0.3,0.8c0,0.3,0.1,0.6,0.1,0.8L11.6,8.8z M9.7,7.6c-0.2,0-0.4,0.1-0.5,0.2C9,7.9,8.9,8,8.9,8.3
			c0,0.2,0,0.3,0.1,0.4c0.1,0.1,0.1,0.1,0.2,0.1c0.1,0,0.1,0,0.2-0.1c0.1,0,0.1-0.1,0.2-0.2c0,0,0-0.1,0-0.2L9.7,7.6z"/>
		<path class="st1" d="M12.2,6.1c0-0.2,0-0.4,0-0.5c0-0.1,0-0.3,0-0.5c0-0.1,0-0.1,0-0.2c0-0.1,0-0.1,0-0.2c0,0,0-0.1,0.1-0.1
			L13.7,4c0,0,0.1,0,0.1,0c0,0,0,0.1,0.1,0.1l0.1,0.5c0.2-0.2,0.3-0.3,0.6-0.4c0.2-0.1,0.4-0.1,0.7-0.1c0.3,0,0.5,0.1,0.8,0.2
			c0.2,0.1,0.4,0.3,0.5,0.5c0.1,0.2,0.2,0.4,0.3,0.7c0.1,0.3,0.1,0.5,0.1,0.9l0,2.3c0,0.1,0,0.2,0,0.3c0,0.1,0.1,0.2,0.1,0.3
			c0,0.1,0.1,0.2,0.2,0.4c0,0,0,0.1,0,0.1c0,0-0.1,0.1-0.1,0.1L15.2,10c0,0-0.1,0-0.1,0c0,0,0,0-0.1-0.1C15,9.8,15,9.6,14.9,9.5
			c0-0.1-0.1-0.3-0.1-0.4c0-0.2,0-0.3,0-0.4c0-0.2,0-0.4,0-0.7c0-0.3,0-0.5,0-0.7c0-0.2,0-0.4,0-0.6l0-0.2c0-0.2,0-0.3-0.1-0.4
			c0-0.1-0.1-0.2-0.2-0.2c-0.1,0-0.2,0.1-0.3,0.3l0,0c-0.1,0.1-0.1,0.2-0.1,0.4l0,3.2c0,0.1,0,0.1-0.1,0.1l-1.7,0
			c-0.1,0-0.1,0-0.1-0.1L12.2,6.1z"/>
		<path class="st1" d="M21.6,8.6c0,0.2,0,0.4,0,0.6c0,0.2,0,0.4,0.1,0.6c0,0,0,0.1,0,0.1c0,0-0.1,0-0.1,0l-1.5,0.2
			c-0.1,0-0.1,0-0.1-0.1l-0.1-0.5c-0.2,0.1-0.3,0.2-0.5,0.3C19.2,10,19,10,18.8,10c-0.2,0-0.4,0-0.6-0.1c-0.2-0.1-0.4-0.2-0.5-0.4
			c-0.1-0.2-0.2-0.3-0.3-0.6c-0.1-0.2-0.1-0.5-0.1-0.7c0-0.4,0.1-0.7,0.2-0.9c0.1-0.3,0.3-0.5,0.6-0.6c0.2-0.2,0.5-0.3,0.8-0.4
			c0.3-0.1,0.6-0.1,0.9-0.1c0-0.1,0-0.1-0.1-0.2c-0.1,0-0.1-0.1-0.2-0.1c-0.1,0-0.2-0.1-0.3-0.1c-0.1,0-0.2,0-0.3,0c0,0-0.1,0-0.1,0
			c0,0,0-0.1,0-0.1L19,4.4c0-0.1,0.1-0.1,0.1-0.1c0.1,0,0.1,0,0.2,0c0.1,0,0.1,0,0.2,0c0.5,0,0.9,0.1,1.2,0.2
			c0.3,0.2,0.5,0.4,0.6,0.6c0.1,0.2,0.2,0.5,0.3,0.8c0,0.3,0.1,0.6,0.1,0.8L21.6,8.6z M19.8,7.4c-0.2,0-0.4,0.1-0.5,0.2
			C19.1,7.7,19,7.9,19,8.1c0,0.2,0,0.3,0.1,0.4c0.1,0.1,0.1,0.1,0.2,0.1c0.1,0,0.1,0,0.2-0.1c0.1,0,0.1-0.1,0.2-0.2c0,0,0-0.1,0-0.2
			L19.8,7.4z"/>
		<path class="st1" d="M22.8,4.2c-0.2-0.2-0.3-0.5-0.2-0.8c0-0.3,0.1-0.6,0.4-0.8c0.2-0.2,0.5-0.3,0.8-0.3c0.3,0,0.5,0.1,0.7,0.4
			c0.2,0.2,0.3,0.5,0.3,0.8c0,0.3-0.1,0.6-0.4,0.8c-0.2,0.2-0.5,0.3-0.8,0.3C23.2,4.6,23,4.5,22.8,4.2z M22.3,10.5
			c-0.1,0-0.1,0-0.1-0.1l0.4-5.3c0-0.1,0-0.1,0.1-0.1l1.7,0.1c0.1,0,0.1,0,0.1,0.1l-0.4,5.3c0,0.1,0,0.1-0.1,0.1L22.3,10.5z"/>
	</g>
</g>
</svg>
