<?xml version="1.0" encoding="utf-8"?>
<!-- Generator: Adobe Illustrator 25.2.1, SVG Export Plug-In . SVG Version: 6.00 Build 0)  -->
<svg version="1.1" id="Layer_1" xmlns="http://www.w3.org/2000/svg" xmlns:xlink="http://www.w3.org/1999/xlink" x="0px" y="0px"
	 viewBox="0 0 145.67 37.84" style="enable-background:new 0 0 145.67 37.84;" xml:space="preserve">
<style type="text/css">
	.st0{fill:#577A9F;}
</style>
<g>
	<g id="그룹_286" transform="translate(34.451 6.093)">
		<path id="패스_105" class="st0" d="M23.09,10.86c0.1,0.65,0.14,1.31,0.14,1.96c0,0.73-0.1,1.45-0.28,2.15
			c-0.49,2.22-2.06,4.04-4.18,4.85c-1.1,0.44-2.28,0.66-3.47,0.64c-3.47,0-6.14-0.75-8.01-2.26c-3.36-2.87-3.76-7.92-0.9-11.28
			c0.3-0.36,0.64-0.68,1-0.98c2.3-1.64,5.08-2.45,7.9-2.3c2.04-0.05,4.07,0.31,5.96,1.06l-0.23,4.42h-0.21
			c-0.8-2.88-2.6-4.32-5.41-4.32c-1.66-0.09-3.26,0.6-4.32,1.88C10,8.19,9.46,10.04,9.57,11.9c-0.1,1.91,0.47,3.79,1.6,5.33
			c1.13,1.37,2.83,2.14,4.6,2.09c1.97,0.1,3.88-0.69,5.22-2.14c1.34-1.61,2.03-3.67,1.92-5.76v-0.55L23.09,10.86z"/>
		<path id="패스_106" class="st0" d="M23.89,19.92c0.39,0.01,0.76-0.15,1.03-0.43c0.28-0.27,0.44-0.64,0.45-1.03V5.66
			c0.01-0.53-0.27-1.02-0.74-1.27c-0.23-0.12-0.48-0.19-0.74-0.18h-0.3V3.98h8.3v0.23h-0.3c-0.39,0-0.76,0.15-1.04,0.43
			c-0.29,0.27-0.45,0.64-0.44,1.03v13.31h2.84c1.1,0.01,2.16-0.38,2.98-1.11c0.91-0.81,1.55-1.88,1.83-3.07H38l-0.88,5.36H23.59
			v-0.23H23.89z"/>
		<path id="패스_107" class="st0" d="M57.42,19.92h0.19v0.23h-8.76v-0.23h0.21c0.29,0.02,0.57-0.1,0.76-0.31
			c0.15-0.16,0.24-0.36,0.25-0.58c0-0.19-0.04-0.39-0.12-0.57l-0.9-2.15h-4.95l-0.93,2.15c-0.07,0.15-0.11,0.32-0.12,0.48
			c0,0.14,0.03,0.28,0.08,0.41c0.07,0.16,0.19,0.3,0.35,0.39c0.17,0.11,0.36,0.18,0.57,0.18h0.21v0.23h-5.15v-0.23h0.21
			c0.37-0.01,0.74-0.11,1.05-0.31c0.37-0.23,0.67-0.55,0.87-0.93l5.38-11.81c0.58-1.09,1.03-2.24,1.32-3.44h0.21l7.33,15.23
			C55.84,19.4,56.59,19.9,57.42,19.92z M44.62,15.16h3.95l-1.94-4.62L44.62,15.16z"/>
		<path id="패스_108" class="st0" d="M72.26,14.93c0.11,1.64-0.64,3.22-1.99,4.17c-1.58,0.99-3.43,1.47-5.29,1.37
			c-1.14,0.02-2.27-0.12-3.37-0.43c-0.78-0.18-1.5-0.55-2.1-1.07c-0.14-0.35-0.21-0.72-0.21-1.1c0-0.38,0.03-0.77,0.1-1.14
			c0.11-0.77,0.4-1.5,0.85-2.13h0.21c-0.02,0.1-0.02,0.2-0.02,0.3c0.01,1.16,0.5,2.27,1.35,3.06c0.99,0.94,2.32,1.42,3.68,1.35
			c0.86,0.06,1.71-0.18,2.42-0.66c0.5-0.34,0.82-0.89,0.84-1.5c0.01-0.54-0.2-1.06-0.58-1.44c-0.55-0.51-1.18-0.91-1.87-1.2
			l-3.77-1.75c-0.97-0.4-1.79-1.1-2.31-2.01c-0.39-0.68-0.59-1.46-0.58-2.24c-0.09-1.46,0.54-2.88,1.69-3.79
			c1.1-0.75,2.41-1.13,3.74-1.06c1.02,0,2.32,0.08,3.91,0.23h1.8l-0.51,3.77h-0.23c0.02-0.81-0.35-1.57-0.99-2.06
			c-0.73-0.54-1.62-0.82-2.53-0.78c-0.83-0.05-1.65,0.14-2.38,0.53c-0.52,0.29-0.86,0.82-0.91,1.41c-0.06,0.72,0.4,1.34,1.39,1.85
			c0.22,0.12,0.44,0.22,0.67,0.3l4.32,2.01C71.25,11.54,72.32,13.15,72.26,14.93z"/>
		<path id="패스_109" class="st0" d="M86.24,14.93c0.11,1.64-0.64,3.22-1.99,4.17c-1.58,0.99-3.43,1.47-5.29,1.37
			c-1.14,0.02-2.27-0.12-3.37-0.43c-0.78-0.18-1.5-0.55-2.1-1.07c-0.14-0.35-0.22-0.72-0.21-1.1c0-0.38,0.03-0.77,0.1-1.14
			c0.11-0.77,0.4-1.5,0.86-2.13h0.21c-0.02,0.1-0.03,0.2-0.02,0.3c0.01,1.16,0.5,2.27,1.35,3.06c0.99,0.94,2.32,1.42,3.68,1.35
			c0.86,0.06,1.7-0.18,2.41-0.66c0.51-0.34,0.82-0.89,0.85-1.5c0.01-0.54-0.2-1.06-0.58-1.44c-0.55-0.51-1.18-0.91-1.87-1.2
			l-3.77-1.75c-0.97-0.4-1.78-1.1-2.31-2.01c-1.08-2.02-0.62-4.52,1.11-6.03c1.1-0.75,2.41-1.13,3.74-1.06
			c1.02,0,2.32,0.08,3.9,0.23h1.8l-0.51,3.77h-0.23c0.02-0.81-0.35-1.57-1-2.06c-0.73-0.54-1.62-0.82-2.53-0.78
			c-0.83-0.05-1.65,0.14-2.38,0.53c-0.52,0.29-0.86,0.82-0.91,1.41c-0.06,0.72,0.4,1.34,1.39,1.85c0.22,0.11,0.44,0.22,0.67,0.3
			l4.32,2.01C85.22,11.54,86.3,13.15,86.24,14.93z"/>
		<path id="패스_110" class="st0" d="M106.72,4.21h-0.32c-0.47,0-0.93,0.14-1.33,0.39c-0.41,0.24-0.75,0.58-1.01,0.97l-4.53,7.14
			v5.75c-0.01,0.39,0.15,0.76,0.43,1.03c0.27,0.28,0.65,0.44,1.05,0.43h0.28v0.23h-8.27v-0.23h0.3c0.8,0,1.45-0.63,1.48-1.43v-5.78
			l-4.41-7.19c-0.36-0.58-0.93-1.01-1.59-1.2c-0.22-0.07-0.46-0.11-0.69-0.11h-0.32V3.98h8.92v0.23h-0.28
			c-0.33-0.01-0.63,0.17-0.79,0.46c-0.1,0.15-0.16,0.32-0.16,0.5c0,0.17,0.05,0.33,0.14,0.48l3.16,5.71l3.28-5.71
			c0.09-0.14,0.14-0.3,0.14-0.46c-0.04-0.51-0.44-0.92-0.95-0.97h-0.28V3.98h5.75L106.72,4.21z"/>
	</g>
	<path id="패스_2908" class="st0" d="M31.25,6.76L28.99,4.5l-0.3-0.3l-0.78-0.78l-5,4.96l-5,4.96l-4.97-4.97L7.99,3.43L7.21,4.21
		L6.93,4.5L4.66,6.76C4.55,6.87,4.5,7.01,4.5,7.15v13.83c0,0.15,0.06,0.29,0.16,0.39l2.26,2.26l0.3,0.3L8,24.72l9.57,9.57
		c0.09,0.09,0.22,0.14,0.35,0.13c0.13,0,0.25-0.04,0.36-0.12h0.01c0.02-0.01,0.04-0.03,0.06-0.04c0.02-0.01,0.04-0.02,0.06-0.04
		l9.52-9.52l0.78-0.78l0.28-0.28l2.27-2.27c0.1-0.1,0.16-0.24,0.16-0.39V7.15C31.41,7,31.35,6.86,31.25,6.76z M26.54,14.13
		l-3.13,4.51l-0.44,1.12l-1.76,4.45l-3.21,8.12L13,19.75l-0.44-1.11l-3.19-4.63L9.25,6.25l6.52,6.52c-0.33-0.16-0.69-0.29-1.05-0.36
		c-0.42-0.09-0.85,0.14-1.01,0.54c-0.41,1.27-0.41,2.63,0.01,3.9c0.15,0.33,0.48,0.55,0.85,0.55c0.07,0,0.13-0.01,0.2-0.02
		c0.94-0.21,1.79-0.71,2.42-1.43h1.53c0.64,0.72,1.48,1.22,2.42,1.43c0.43,0.09,0.87-0.12,1.05-0.52l0,0
		c0.42-1.27,0.42-2.63,0.01-3.9c-0.17-0.4-0.59-0.62-1.01-0.54c-0.43,0.09-0.84,0.24-1.23,0.45l6.63-6.6L26.54,14.13z"/>
</g>
</svg>
