<?xml version="1.0" encoding="UTF-8"?><svg id="a" xmlns="http://www.w3.org/2000/svg" viewBox="0 0 15.46 15.46"><defs><style>.b{fill:#f5d023;}.c{fill:#15161d;}</style></defs><path class="b" d="M14.87,7.66c1.17,3.93-3.17,5.96-7.19,7.19C3.89,16.01,1.34,11.54,.5,7.66S3.72,1.01,7.69,.47s6.06,3.38,7.19,7.19Z"/><path class="c" d="M5.12,3.84c0-.07,.04-.12,.11-.13,.26-.05,.54-.09,.86-.11,.32-.03,.65-.04,.98-.04,.21,0,.42,.01,.64,.03s.42,.05,.62,.1c.2,.05,.39,.11,.57,.2,.18,.08,.34,.19,.49,.31,.26,.23,.44,.49,.54,.79,.1,.29,.16,.62,.16,.98,0,.38-.08,.75-.25,1.1-.16,.35-.43,.63-.8,.86,.39,.26,.65,.74,.77,1.44,.03,.19,.07,.4,.11,.62,.04,.22,.09,.43,.14,.64s.09,.39,.13,.55c.04,.16,.08,.28,.12,.35,.02,.04,.02,.08,0,.12s-.06,.06-.11,.07l-1.88,.23s-.09-.02-.12-.07c-.02-.06-.05-.16-.09-.31-.04-.15-.07-.33-.11-.53-.04-.2-.07-.41-.11-.64s-.07-.44-.09-.65c-.06-.42-.13-.69-.22-.83-.09-.14-.22-.2-.38-.2h-.05v2.87c0,.09-.04,.13-.12,.13h-1.8c-.08,0-.12-.04-.12-.13V3.84Zm2.04,3.2h.11c.26,0,.44-.09,.56-.28,.12-.19,.18-.41,.18-.65s-.05-.47-.15-.64-.27-.26-.5-.26h-.11s-.07,0-.1,.01v1.82Z"/></svg>