<svg xmlns="http://www.w3.org/2000/svg" width="26.923" height="31" viewBox="0 0 26.923 31">
    <path 
        d="M120.44,433.154l-2.258-2.258-.3-.3-.779-.78-5.005,4.965-5,4.964-4.97-4.972-4.948-4.946-.78.779-.283.284-2.269,2.267a.557.557,0,0,0-.161.39v13.835a.552.552,0,0,0,.163.39l2.258,2.259.3.3.78.78,9.572,9.571a.488.488,0,0,0,.351.132.7.7,0,0,0,.362-.116h.007a.46.46,0,0,0,.059-.04.384.384,0,0,0,.058-.038l9.517-9.517.78-.78.283-.283,2.269-2.269a.557.557,0,0,0,.161-.39V433.544A.552.552,0,0,0,120.44,433.154Zm-4.711,7.37-3.126,4.512-.441,1.118-1.756,4.454-3.206,8.124-5.012-12.585-.444-1.114-3.19-4.633-.116-7.752,6.519,6.518a4.4,4.4,0,0,0-1.05-.363.9.9,0,0,0-1.012.537,6.237,6.237,0,0,0,.008,3.9.929.929,0,0,0,.848.546.945.945,0,0,0,.2-.022,4.561,4.561,0,0,0,2.422-1.432h1.534a4.553,4.553,0,0,0,2.421,1.432.934.934,0,0,0,1.05-.525h0a6.237,6.237,0,0,0,.008-3.9.9.9,0,0,0-1.011-.537,4.322,4.322,0,0,0-1.228.449l6.632-6.6Z"
        transform="translate(-93.68 -429.813)" fill="#597ea5" />
</svg>